<?xml version="1.0" encoding="UTF-8" standalone="no"?>
<!DOCTYPE svg PUBLIC "-//W3C//DTD SVG 1.1//EN" "http://www.w3.org/Graphics/SVG/1.1/DTD/svg11.dtd">
<svg version="1.1" xmlns="http://www.w3.org/2000/svg" width="384" height="384">
    <path d="M0 0 C1.76587715 0.06193542 1.76587715 0.06193542 3.56742859 0.12512207 C5.38799019 0.14210144 5.38799019 0.14210144 7.24533081 0.15942383 C11.11863101 0.20417719 14.9882178 0.30455476 18.86039734 0.40637207 C21.48729698 0.44649964 24.11425468 0.48300164 26.74125671 0.51574707 C33.17806872 0.60391014 39.6127178 0.73774346 46.04789734 0.90637207 C44.66074228 4.47577695 43.13286622 7.56370375 41.04789734 10.78137207 C40.43172546 11.73398926 39.81555359 12.68660645 39.18070984 13.66809082 C36.34610243 17.97191782 33.48507841 22.25777449 30.6204071 26.54162598 C25.08743683 34.34440084 25.08743683 34.34440084 21.04789734 42.90637207 C20.04789734 43.90637207 19.04789734 44.90637207 18.04789734 45.90637207 C16.914392 47.92307034 16.914392 47.92307034 16.04789734 49.90637207 C15.04789734 51.90637207 15.04789734 51.90637207 13.75102234 53.12512207 C11.36341526 55.62225241 9.62800927 58.4940662 7.79789734 61.40637207 C7.39949646 62.03293701 7.00109558 62.65950195 6.59062195 63.30505371 C5.40582218 65.16973056 4.22601803 67.03746987 3.04789734 68.90637207 C-4.1996573 80.38561438 -11.57157151 91.78881737 -19.57710266 102.75793457 C-21.05310312 105.06418529 -21.99903763 107.3450098 -22.95210266 109.90637207 C-23.95210266 111.90637207 -23.95210266 111.90637207 -25.38960266 113.28137207 C-27.08599443 115.04561951 -27.94967826 116.68671803 -28.95210266 118.90637207 C-29.95210266 120.90637207 -29.95210266 120.90637207 -31.38154602 122.32727051 C-33.94064606 124.90029384 -35.63997129 128.07134592 -37.51460266 131.15637207 C-40.90412196 136.65685304 -44.35365761 142.10254487 -47.95210266 147.46887207 C-48.36041321 148.0784375 -48.76872375 148.68800293 -49.18940735 149.31604004 C-50.88250829 151.83840134 -52.58071406 154.3572621 -54.28266907 156.87365723 C-59.57013422 164.69449951 -64.72217306 172.44651286 -68.95210266 180.90637207 C-69.38522766 181.31629395 -69.81835266 181.72621582 -70.26460266 182.14855957 C-72.56826626 184.54820915 -74.17690528 187.2184674 -75.95210266 190.03137207 C-76.7551654 191.29589997 -77.55856582 192.56021346 -78.36225891 193.82434082 C-78.99478577 194.82280029 -78.99478577 194.82280029 -79.64009094 195.84143066 C-81.87183993 199.35392284 -84.12966837 202.84946962 -86.38960266 206.34387207 C-86.84867004 207.05422607 -87.30773743 207.76458008 -87.78071594 208.49645996 C-90.92308273 213.34759188 -94.11148948 218.16604191 -97.32710266 222.96887207 C-103.4561912 231.51851166 -103.4561912 231.51851166 -107.95210266 240.90637207 C-108.95210266 241.90637207 -109.95210266 242.90637207 -110.95210266 243.90637207 C-112.085608 245.92307034 -112.085608 245.92307034 -112.95210266 247.90637207 C-113.95210266 249.90637207 -113.95210266 249.90637207 -115.24897766 251.12512207 C-117.63658474 253.62225241 -119.37199073 256.4940662 -121.20210266 259.40637207 C-121.60050354 260.03293701 -121.99890442 260.65950195 -122.40937805 261.30505371 C-123.59417782 263.16973056 -124.77398197 265.03746987 -125.95210266 266.90637207 C-133.1996573 278.38561438 -140.57157151 289.78881737 -148.57710266 300.75793457 C-150.05310312 303.06418529 -150.99903763 305.3450098 -151.95210266 307.90637207 C-153.03516076 310.07248827 -154.2466896 311.20095901 -155.95210266 312.90637207 C-156.37135513 313.59052185 -156.7906076 314.27467163 -157.2225647 314.97955322 C-158.95210266 316.90637207 -158.95210266 316.90637207 -161.36291504 317.38739014 C-162.3155574 317.37850769 -163.26819977 317.36962524 -164.24971008 317.36047363 C-165.3306041 317.36017151 -166.41149811 317.35986938 -167.52514648 317.35955811 C-169.27369682 317.32859039 -169.27369682 317.32859039 -171.05757141 317.29699707 C-172.25191299 317.29133728 -173.44625458 317.28567749 -174.67678833 317.27984619 C-178.49813113 317.25742382 -182.31854241 317.20721402 -186.13960266 317.15637207 C-188.72747976 317.13631477 -191.31537153 317.11806267 -193.90327454 317.10168457 C-200.2532027 317.0575397 -206.60258614 316.99056835 -212.95210266 316.90637207 C-212.95210266 315.25637207 -212.95210266 313.60637207 -212.95210266 311.90637207 C-212.29210266 311.90637207 -211.63210266 311.90637207 -210.95210266 311.90637207 C-209.43431763 309.90464827 -209.43431763 309.90464827 -207.88960266 307.28137207 C-206.95374329 305.76930176 -206.95374329 305.76930176 -205.99897766 304.22668457 C-204.98577454 302.58312988 -204.98577454 302.58312988 -203.95210266 300.90637207 C-202.52021985 298.65248245 -201.08420429 296.40205079 -199.63960266 294.15637207 C-199.08018982 293.28480469 -199.08018982 293.28480469 -198.50947571 292.39562988 C-195.62078424 287.90902982 -192.67068943 283.46540757 -189.70210266 279.03137207 C-183.500409 270.38561082 -183.500409 270.38561082 -178.95210266 260.90637207 C-177.95210266 259.90637207 -176.95210266 258.90637207 -175.95210266 257.90637207 C-174.81859732 255.8896738 -174.81859732 255.8896738 -173.95210266 253.90637207 C-172.95210266 251.90637207 -172.95210266 251.90637207 -171.21772766 249.78527832 C-168.46069749 246.2819486 -166.09532117 242.60099034 -163.70210266 238.84387207 C-162.7235386 237.32004742 -161.74436853 235.79661178 -160.76460266 234.27355957 C-160.04723938 233.15739258 -160.04723938 233.15739258 -159.31538391 232.01867676 C-154.52823317 224.60133647 -149.59165112 217.29933285 -144.39741516 210.16027832 C-142.89150069 207.81186576 -141.91956051 205.51676508 -140.95210266 202.90637207 C-139.95210266 200.90637207 -139.95210266 200.90637207 -138.51460266 199.53137207 C-136.81821089 197.76712463 -135.95452707 196.12602611 -134.95210266 193.90637207 C-133.95210266 191.90637207 -133.95210266 191.90637207 -132.21772766 189.78527832 C-129.46069749 186.2819486 -127.09532117 182.60099034 -124.70210266 178.84387207 C-123.7235386 177.32004742 -122.74436853 175.79661178 -121.76460266 174.27355957 C-121.04723938 173.15739258 -121.04723938 173.15739258 -120.31538391 172.01867676 C-115.52823317 164.60133647 -110.59165112 157.29933285 -105.39741516 150.16027832 C-103.89150069 147.81186576 -102.91956051 145.51676508 -101.95210266 142.90637207 C-100.95210266 140.90637207 -100.95210266 140.90637207 -99.51460266 139.53137207 C-97.81821089 137.76712463 -96.95452707 136.12602611 -95.95210266 133.90637207 C-94.95210266 131.90637207 -94.95210266 131.90637207 -93.21772766 129.78527832 C-90.46071318 126.28196853 -88.09514872 122.60108011 -85.70210266 118.84387207 C-84.72100148 117.31479636 -83.73922739 115.78615221 -82.75679016 114.25793457 C-82.27822571 113.51317871 -81.79966125 112.76842285 -81.30659485 112.00109863 C-79.50884957 109.22087972 -77.67213166 106.46789118 -75.82710266 103.71887207 C-72.85804849 99.2806586 -69.91982318 94.82405222 -67.01460266 90.34387207 C-66.62450012 89.74743896 -66.23439758 89.15100586 -65.83247375 88.53649902 C-64.19618261 86.0018162 -62.91112513 83.78343948 -61.95210266 80.90637207 C-60.95210266 79.90637207 -59.95210266 78.90637207 -58.95210266 77.90637207 C-57.81859732 75.8896738 -57.81859732 75.8896738 -56.95210266 73.90637207 C-55.95210266 71.90637207 -55.95210266 71.90637207 -54.5226593 70.48547363 C-51.96357975 67.9124709 -50.26412007 64.74144674 -48.38960266 61.65637207 C-44.98602226 56.129555 -41.51236163 50.66716916 -37.88960266 45.28137207 C-34.52058659 40.26244292 -31.17623427 35.22974938 -27.88960266 30.15637207 C-27.50731506 29.57162109 -27.12502747 28.98687012 -26.7311554 28.38439941 C-25.12669473 25.89691485 -23.89344444 23.73039742 -22.95210266 20.90637207 C-21.95210266 19.90637207 -20.95210266 18.90637207 -19.95210266 17.90637207 C-18.81859732 15.8896738 -18.81859732 15.8896738 -17.95210266 13.90637207 C-16.95210266 11.90637207 -16.95210266 11.90637207 -15.50866699 10.54003906 C-13.77608057 8.72163092 -13.07516522 7.0451398 -12.04707336 4.7677002 C-8.97764453 -0.20809694 -5.52393657 -0.00303228 0 0 Z " fill="#FEFEFE" transform="translate(275.9521026611328,36.0936279296875)"/>
    <path d="M0 0 C0.80816162 0.15678223 1.61632324 0.31356445 2.44897461 0.47509766 C18.34039005 3.8936284 33.26962481 13.34034611 42.125 27 C48.34519207 36.96913286 52.30060169 46.64144432 54.4375 58.25 C54.71787109 59.76980469 54.71787109 59.76980469 55.00390625 61.3203125 C55.63142221 67.00752918 55.62185161 72.65752208 55.625 78.375 C55.63724609 79.52226563 55.64949219 80.66953125 55.66210938 81.8515625 C55.67912954 91.92749738 54.94154555 102.01186557 51.5 111.5625 C51.15453125 112.53574219 50.8090625 113.50898438 50.453125 114.51171875 C50.11796875 115.41535156 49.7828125 116.31898438 49.4375 117.25 C49.14359375 118.06082031 48.8496875 118.87164062 48.546875 119.70703125 C44.6426827 130.32873089 36.08194208 139.95126262 27.4375 147.25 C26.7775 147.25 26.1175 147.25 25.4375 147.25 C25.4375 148.57 25.4375 149.89 25.4375 151.25 C24.64859375 151.39308594 24.64859375 151.39308594 23.84375 151.5390625 C20.62728554 152.48938154 17.89532523 154.04616086 14.9375 155.625 C8.59029156 158.89854393 2.46640373 160.87709171 -4.5625 162.25 C-5.40683594 162.45367187 -6.25117187 162.65734375 -7.12109375 162.8671875 C-26.78096948 167.23604877 -48.04684905 164.07752083 -65.5625 154.25 C-69.18618657 151.84702482 -72.38994351 149.21713917 -75.5625 146.25 C-76.63757813 145.27546875 -76.63757813 145.27546875 -77.734375 144.28125 C-90.28751689 132.38879979 -96.98494849 116.73231104 -99.25 99.8125 C-99.37955078 98.93529297 -99.50910156 98.05808594 -99.64257812 97.15429688 C-102.78019556 74.62653572 -98.3212449 48.35005367 -84.7109375 29.71484375 C-79.85314163 23.49724016 -74.83139227 17.22519342 -68.125 12.9375 C-67.279375 12.380625 -66.43375 11.82375 -65.5625 11.25 C-65.5625 10.59 -65.5625 9.93 -65.5625 9.25 C-64.9025 9.1675 -64.2425 9.085 -63.5625 9 C-60.40435401 8.2104635 -57.8640043 6.85259168 -54.98828125 5.36328125 C-37.61078631 -2.61189759 -18.52885876 -3.62630535 0 0 Z M-42.75 47.0625 C-53.48263663 60.22956111 -52.80532557 77.11881379 -51.5625 93.25 C-50.05850273 104.66054432 -46.9565981 113.24594647 -37.8046875 120.6875 C-31.22660339 125.27153074 -23.2895849 124.86592706 -15.5625 124.25 C-10.55823646 123.2062536 -7.09836626 121.96743777 -3.5625 118.25 C-2.5725 117.59 -1.5825 116.93 -0.5625 116.25 C-0.5625 115.59 -0.5625 114.93 -0.5625 114.25 C0.0975 114.25 0.7575 114.25 1.4375 114.25 C2.23663872 112.41991133 3.02640755 110.58573034 3.8125 108.75 C4.25335938 107.7290625 4.69421875 106.708125 5.1484375 105.65625 C8.07979107 97.91037026 8.76571838 91.22304464 8.6875 83 C8.68073242 81.97946533 8.67396484 80.95893066 8.66699219 79.9074707 C8.49392032 67.29636768 7.44134662 53.92484386 -1.5625 44.25 C-4.52375944 42.39109919 -4.52375944 42.39109919 -7.75 40.9375 C-8.81605469 40.42574219 -9.88210937 39.91398437 -10.98046875 39.38671875 C-21.34754827 34.82269433 -35.20153748 39.65356544 -42.75 47.0625 Z " fill="#FEFEFE" transform="translate(116.5625,32.75)"/>
    <path d="M0 0 C10.26265429 7.58892065 17.87786837 18.28700236 22.25390625 30.2265625 C22.53621094 30.98839844 22.81851563 31.75023437 23.109375 32.53515625 C29.11366855 50.60899419 29.78725909 69.15394458 26.50390625 87.7890625 C26.34720459 88.68069092 26.19050293 89.57231934 26.02905273 90.4909668 C24.23668946 99.68810061 20.78614413 107.82803005 16.00390625 115.8515625 C15.64039063 116.47417969 15.276875 117.09679687 14.90234375 117.73828125 C14.02561526 119.2379484 13.14068394 120.73281562 12.25390625 122.2265625 C11.59390625 122.2265625 10.93390625 122.2265625 10.25390625 122.2265625 C9.97417969 122.81953125 9.69445312 123.4125 9.40625 124.0234375 C3.64793172 135.03256127 -10.09083525 144.09770185 -21.67626953 147.85205078 C-42.77917405 153.92901151 -65.21257379 154.74125977 -85.74609375 146.2265625 C-86.46152344 145.93265625 -87.17695313 145.63875 -87.9140625 145.3359375 C-95.11849257 142.30562052 -100.23241299 137.84513237 -105.9765625 132.6171875 C-107.63308429 131.02059643 -107.63308429 131.02059643 -109.74609375 131.2265625 C-109.84535156 130.65808594 -109.94460937 130.08960938 -110.046875 129.50390625 C-110.88865113 126.76225549 -112.19380848 125.06652976 -113.93359375 122.7890625 C-129.08192737 101.63738517 -130.01655804 75.61605378 -126.359375 50.6875 C-122.98605164 31.65078347 -112.36826088 13.05664258 -96.58203125 1.71484375 C-95.67324219 0.97814453 -95.67324219 0.97814453 -94.74609375 0.2265625 C-94.74609375 -0.4334375 -94.74609375 -1.0934375 -94.74609375 -1.7734375 C-94.23433594 -1.86753906 -93.72257812 -1.96164063 -93.1953125 -2.05859375 C-89.79637946 -3.05062684 -86.72621166 -4.65595379 -83.55859375 -6.2109375 C-77.97236971 -8.89000363 -72.90290843 -10.78040287 -66.74609375 -11.7734375 C-65.97571777 -11.94641357 -65.2053418 -12.11938965 -64.41162109 -12.29760742 C-42.0363877 -16.29186735 -19.02066665 -12.28361687 0 0 Z M-71.27734375 35.9453125 C-75.13026247 40.70480033 -77.20510052 45.32866037 -78.74609375 51.2265625 C-78.91810303 51.7939917 -79.0901123 52.3614209 -79.26733398 52.94604492 C-80.28255055 57.78191331 -79.97216344 62.81863629 -79.98632812 67.74145508 C-79.99594755 69.75840893 -80.02695519 71.77430432 -80.05859375 73.79101562 C-80.10657621 85.88859304 -78.53809023 95.70521987 -70.74609375 105.2265625 C-64.77581601 111.19684024 -58.40595537 112.42311622 -50.24609375 112.6015625 C-41.0430416 112.37353841 -35.30193444 110.65628515 -28.56640625 104.27734375 C-20.06442543 94.69893188 -18.04582533 79.41224296 -18.53515625 66.953125 C-18.63957031 65.60347656 -18.63957031 65.60347656 -18.74609375 64.2265625 C-18.85050781 62.59847656 -18.85050781 62.59847656 -18.95703125 60.9375 C-19.98938384 50.59103296 -23.32644193 39.77937624 -31.24609375 32.5390625 C-32.98853992 31.26418163 -32.98853992 31.26418163 -34.74609375 30.2265625 C-35.73609375 29.6078125 -36.72609375 28.9890625 -37.74609375 28.3515625 C-49.25796812 23.96608655 -63.16739886 26.84231313 -71.27734375 35.9453125 Z " fill="#FEFEFE" transform="translate(340.74609375,205.7734375)"/>
    <path d="M0 0 C18.15 0 36.3 0 55 0 C55 0.33 55 0.66 55 1 C36.85 1 18.7 1 0 1 C0 0.67 0 0.34 0 0 Z " fill="#FDFDFD" transform="translate(267,35)"/>
    <path d="M0 0 C17.82 0 35.64 0 54 0 C54 0.33 54 0.66 54 1 C36.18 1 18.36 1 0 1 C0 0.67 0 0.34 0 0 Z " fill="#FEFEFE" transform="translate(63,354)"/>
    <path d="M0 0 C0.33 0 0.66 0 1 0 C1 8.91 1 17.82 1 27 C0.67 27 0.34 27 0 27 C0 18.09 0 9.18 0 0 Z " fill="#FDFDFD" transform="translate(173,98)"/>
    <path d="M0 0 C0.33 0 0.66 0 1 0 C1 6.93 1 13.86 1 21 C0.67 21 0.34 21 0 21 C0 14.07 0 7.14 0 0 Z " fill="#FDFDFD" transform="translate(66,105)"/>
    <path d="M0 0 C0.33 0 0.66 0 1 0 C1 6.6 1 13.2 1 20 C0.67 20 0.34 20 0 20 C0 13.4 0 6.8 0 0 Z " fill="#FDFDFD" transform="translate(211,269)"/>
    <path d="M0 0 C6.27 0 12.54 0 19 0 C19 0.33 19 0.66 19 1 C12.73 1 6.46 1 0 1 C0 0.67 0 0.34 0 0 Z " fill="#FDFDFD" transform="translate(279,359)"/>
    <path d="M0 0 C6.27 0 12.54 0 19 0 C19 0.33 19 0.66 19 1 C12.73 1 6.46 1 0 1 C0 0.67 0 0.34 0 0 Z " fill="#FDFDFD" transform="translate(284,191)"/>
    <path d="M0 0 C0.33 0 0.66 0 1 0 C1 6.27 1 12.54 1 19 C0.67 19 0.34 19 0 19 C0 12.73 0 6.46 0 0 Z " fill="#FDFDFD" transform="translate(123,104)"/>
    <path d="M0 0 C5.94 0 11.88 0 18 0 C18 0.33 18 0.66 18 1 C12.06 1 6.12 1 0 1 C0 0.67 0 0.34 0 0 Z " fill="#FDFDFD" transform="translate(83,198)"/>
    <path d="M0 0 C0.66 0.33 1.32 0.66 2 1 C-0.64 3.64 -3.28 6.28 -6 9 C-6.66 8.67 -7.32 8.34 -8 8 C-5.36 5.36 -2.72 2.72 0 0 Z " fill="#FDFDFD" transform="translate(153,171)"/>
    <path d="M0 0 C4.95 0 9.9 0 15 0 C15 0.33 15 0.66 15 1 C10.05 1 5.1 1 0 1 C0 0.67 0 0.34 0 0 Z " fill="#FDFDFD" transform="translate(283,316)"/>
    <path d="M0 0 C4.62 0 9.24 0 14 0 C14 0.33 14 0.66 14 1 C9.38 1 4.76 1 0 1 C0 0.67 0 0.34 0 0 Z " fill="#FDFDFD" transform="translate(284,234)"/>
    <path d="M0 0 C4.29 0 8.58 0 13 0 C13 0.33 13 0.66 13 1 C8.71 1 4.42 1 0 1 C0 0.67 0 0.34 0 0 Z " fill="#FDFDFD" transform="translate(88,155)"/>
    <path d="M0 0 C0.33 0 0.66 0 1 0 C1 3.63 1 7.26 1 11 C0.67 11 0.34 11 0 11 C0 7.37 0 3.74 0 0 Z " fill="#FDFDFD" transform="translate(320,270)"/>
    <path d="M0 0 C2.62187494 1.04874998 3.79371361 1.64931313 5.25 4.125 C5.4975 4.74375 5.745 5.3625 6 6 C3.97945196 4.35830472 1.97956942 2.69088222 0 1 C0 0.67 0 0.34 0 0 Z " fill="#FDFDFD" transform="translate(306,238)"/>
    <path d="M0 0 C0.33 0 0.66 0 1 0 C1 3.3 1 6.6 1 10 C0.67 10 0.34 10 0 10 C0 6.7 0 3.4 0 0 Z " fill="#FDFDFD" transform="translate(15,122)"/>
    <path d="M0 0 C0.33 0 0.66 0 1 0 C1 3.3 1 6.6 1 10 C0.67 10 0.34 10 0 10 C0 6.7 0 3.4 0 0 Z " fill="#FDFDFD" transform="translate(15,102)"/>
    <path d="M0 0 C1.65 1.65 3.3 3.3 5 5 C3.0625 4.1875 3.0625 4.1875 1 3 C0.67 2.01 0.34 1.02 0 0 Z " fill="#FDFDFD" transform="translate(269,307)"/>
    <path d="M0 0 C0.33 0 0.66 0 1 0 C1 2.64 1 5.28 1 8 C0.67 8 0.34 8 0 8 C0 5.36 0 2.72 0 0 Z " fill="#FDFDFD" transform="translate(212,261)"/>
    <path d="M0 0 C0.33 0 0.66 0 1 0 C1 2.64 1 5.28 1 8 C0.67 8 0.34 8 0 8 C0 5.36 0 2.72 0 0 Z " fill="#FDFDFD" transform="translate(319,262)"/>
    <path d="M0 0 C0.33 0 0.66 0 1 0 C1 2.64 1 5.28 1 8 C0.67 8 0.34 8 0 8 C0 5.36 0 2.72 0 0 Z " fill="#FDFDFD" transform="translate(369,255)"/>
    <path d="M0 0 C0.33 0 0.66 0 1 0 C1 2.31 1 4.62 1 7 C0.67 7 0.34 7 0 7 C0 4.69 0 2.38 0 0 Z " fill="#FDFDFD" transform="translate(369,282)"/>
    <path d="M0 0 C0.33 0 0.66 0 1 0 C1 2.31 1 4.62 1 7 C0.67 7 0.34 7 0 7 C0 4.69 0 2.38 0 0 Z " fill="#FDFDFD" transform="translate(319,281)"/>
    <path d="M0 0 C2.31 0 4.62 0 7 0 C7 0.33 7 0.66 7 1 C4.69 1 2.38 1 0 1 C0 0.67 0 0.34 0 0 Z " fill="#FDFDFD" transform="translate(106,30)"/>
    <path d="M0 0 C1.98 0 3.96 0 6 0 C6 0.33 6 0.66 6 1 C4.02 1 2.04 1 0 1 C0 0.67 0 0.34 0 0 Z " fill="#FDFDFD" transform="translate(298,358)"/>
    <path d="M0 0 C1.98 0 3.96 0 6 0 C6 0.33 6 0.66 6 1 C4.02 1 2.04 1 0 1 C0 0.67 0 0.34 0 0 Z " fill="#FDFDFD" transform="translate(273,358)"/>
    <path d="M0 0 C0.33 0 0.66 0 1 0 C1 1.98 1 3.96 1 6 C0.67 6 0.34 6 0 6 C0 4.02 0 2.04 0 0 Z " fill="#FDFDFD" transform="translate(212,289)"/>
    <path d="M0 0 C1.98 0 3.96 0 6 0 C6 0.33 6 0.66 6 1 C4.02 1 2.04 1 0 1 C0 0.67 0 0.34 0 0 Z " fill="#FDFDFD" transform="translate(101,197)"/>
    <path d="M0 0 C1.98 0 3.96 0 6 0 C6 0.33 6 0.66 6 1 C4.02 1 2.04 1 0 1 C0 0.67 0 0.34 0 0 Z " fill="#FDFDFD" transform="translate(77,197)"/>
    <path d="M0 0 C0.33 0 0.66 0 1 0 C1 1.98 1 3.96 1 6 C0.67 6 0.34 6 0 6 C0 4.02 0 2.04 0 0 Z " fill="#FDFDFD" transform="translate(172,125)"/>
    <path d="M0 0 C0.33 0 0.66 0 1 0 C1 1.98 1 3.96 1 6 C0.67 6 0.34 6 0 6 C0 4.02 0 2.04 0 0 Z " fill="#FDFDFD" transform="translate(172,92)"/>
    <path d="M0 0 C1.98 0 3.96 0 6 0 C6 0.33 6 0.66 6 1 C4.02 1 2.04 1 0 1 C0 0.67 0 0.34 0 0 Z " fill="#FEFEFE" transform="translate(82,30)"/>
    <path d="M0 0 C0.66 0.33 1.32 0.66 2 1 C1.01 1.66 0.02 2.32 -1 3 C-0.67 2.01 -0.34 1.02 0 0 Z " fill="#FDFDFD" transform="translate(341,340)"/>
    <path d="M0 0 C0.33 0 0.66 0 1 0 C1 1.65 1 3.3 1 5 C0.67 5 0.34 5 0 5 C0 3.35 0 1.7 0 0 Z " fill="#FDFDFD" transform="translate(368,289)"/>
    <path d="M0 0 C0.33 0 0.66 0 1 0 C1 1.65 1 3.3 1 5 C0.67 5 0.34 5 0 5 C0 3.35 0 1.7 0 0 Z " fill="#FDFDFD" transform="translate(262,261)"/>
    <path d="M0 0 C1.65 0 3.3 0 5 0 C5 0.33 5 0.66 5 1 C3.35 1 1.7 1 0 1 C0 0.67 0 0.34 0 0 Z " fill="#FDFDFD" transform="translate(107,196)"/>
    <path d="M0 0 C1.65 0 3.3 0 5 0 C5 0.33 5 0.66 5 1 C3.35 1 1.7 1 0 1 C0 0.67 0 0.34 0 0 Z " fill="#FDFDFD" transform="translate(274,192)"/>
    <path d="M0 0 C0.33 0 0.66 0 1 0 C1 1.65 1 3.3 1 5 C0.67 5 0.34 5 0 5 C0 3.35 0 1.7 0 0 Z " fill="#FDFDFD" transform="translate(16,132)"/>
    <path d="M0 0 C0.33 0 0.66 0 1 0 C1 1.65 1 3.3 1 5 C0.67 5 0.34 5 0 5 C0 3.35 0 1.7 0 0 Z " fill="#FDFDFD" transform="translate(16,97)"/>
    <path d="M0 0 C1.65 0 3.3 0 5 0 C5 0.33 5 0.66 5 1 C3.35 1 1.7 1 0 1 C0 0.67 0 0.34 0 0 Z " fill="#FEFEFE" transform="translate(77,31)"/>
    <path d="M0 0 C4 1 4 1 4 1 Z " fill="#FDFDFD" transform="translate(307,357)"/>
    <path d="M0 0 C4 1 4 1 4 1 Z " fill="#FDFDFD" transform="translate(266,357)"/>
    <path d="M0 0 C0 3 0 3 0 3 Z " fill="#FDFDFD" transform="translate(350,331)"/>
    <path d="M0 0 C1 4 1 4 1 4 Z " fill="#FDFDFD" transform="translate(213,299)"/>
    <path d="M0 0 C1 4 1 4 1 4 Z " fill="#FEFEFE" transform="translate(367,294)"/>
    <path d="M0 0 C1 4 1 4 1 4 Z " fill="#FDFDFD" transform="translate(263,291)"/>
    <path d="M0 0 C1 4 1 4 1 4 Z " fill="#FDFDFD" transform="translate(262,287)"/>
    <path d="M0 0 C1 4 1 4 1 4 Z " fill="#FDFDFD" transform="translate(318,288)"/>
    <path d="M0 0 C1 4 1 4 1 4 Z " fill="#FDFDFD" transform="translate(263,257)"/>
    <path d="M0 0 C1 4 1 4 1 4 Z " fill="#FDFDFD" transform="translate(213,253)"/>
    <path d="M0 0 C1 4 1 4 1 4 Z " fill="#FEFEFE" transform="translate(368,251)"/>
    <path d="M0 0 C1 4 1 4 1 4 Z " fill="#FDFDFD" transform="translate(367,247)"/>
    <path d="M0 0 C4 1 4 1 4 1 Z " fill="#FDFDFD" transform="translate(73,196)"/>
    <path d="M0 0 C4 1 4 1 4 1 Z " fill="#FDFDFD" transform="translate(313,193)"/>
    <path d="M0 0 C4 1 4 1 4 1 Z " fill="#FDFDFD" transform="translate(270,193)"/>
    <path d="M0 0 C4 1 4 1 4 1 Z " fill="#FEFEFE" transform="translate(309,192)"/>
    <path d="M0 0 C4 1 4 1 4 1 Z " fill="#FDFDFD" transform="translate(101,154)"/>
    <path d="M0 0 C1 4 1 4 1 4 Z " fill="#FDFDFD" transform="translate(171,134)"/>
    <path d="M0 0 C1 4 1 4 1 4 Z " fill="#FDFDFD" transform="translate(122,128)"/>
    <path d="M0 0 C1 4 1 4 1 4 Z " fill="#FEFEFE" transform="translate(67,96)"/>
    <path d="M0 0 C1 4 1 4 1 4 Z " fill="#FEFEFE" transform="translate(17,93)"/>
    <path d="M0 0 C1 4 1 4 1 4 Z " fill="#FDFDFD" transform="translate(171,85)"/>
    <path d="M0 0 C4 1 4 1 4 1 Z " fill="#FDFDFD" transform="translate(117,32)"/>
    <path d="M0 0 C4 1 4 1 4 1 Z " fill="#FDFDFD" transform="translate(113,31)"/>
    <path d="M0 0 C3 1 3 1 3 1 Z " fill="#FDFDFD" transform="translate(311,356)"/>
    <path d="M0 0 C3 1 3 1 3 1 Z " fill="#FEFEFE" transform="translate(263,356)"/>
    <path d="M0 0 C3 1 3 1 3 1 Z " fill="#FDFDFD" transform="translate(314,355)"/>
    <path d="M0 0 C3 1 3 1 3 1 Z " fill="#FEFEFE" transform="translate(298,315)"/>
    <path d="M0 0 C3 1 3 1 3 1 Z " fill="#FDFDFD" transform="translate(280,315)"/>
    <path d="M0 0 C3 1 3 1 3 1 Z " fill="#FDFDFD" transform="translate(302,314)"/>
    <path d="" fill="#FDFDFD" transform="translate(0,0)"/>
    <path d="" fill="#FDFDFD" transform="translate(0,0)"/>
    <path d="" fill="#FDFDFD" transform="translate(0,0)"/>
    <path d="" fill="#FEFEFE" transform="translate(0,0)"/>
    <path d="" fill="#FEFEFE" transform="translate(0,0)"/>
    <path d="" fill="#FDFDFD" transform="translate(0,0)"/>
    <path d="" fill="#FEFEFE" transform="translate(0,0)"/>
    <path d="" fill="#FEFEFE" transform="translate(0,0)"/>
    <path d="" fill="#FEFEFE" transform="translate(0,0)"/>
    <path d="" fill="#FEFEFE" transform="translate(0,0)"/>
    <path d="" fill="#FEFEFE" transform="translate(0,0)"/>
    <path d="" fill="#FDFDFD" transform="translate(0,0)"/>
    <path d="" fill="#FEFEFE" transform="translate(0,0)"/>
    <path d="M0 0 C3 1 3 1 3 1 Z " fill="#FDFDFD" transform="translate(277,236)"/>
    <path d="M0 0 C3 1 3 1 3 1 Z " fill="#FDFDFD" transform="translate(326,197)"/>
    <path d="M0 0 C3 1 3 1 3 1 Z " fill="#FEFEFE" transform="translate(115,195)"/>
    <path d="M0 0 C3 1 3 1 3 1 Z " fill="#FDFDFD" transform="translate(67,195)"/>
    <path d="M0 0 C3 1 3 1 3 1 Z " fill="#FDFDFD" transform="translate(317,194)"/>
    <path d="M0 0 C3 1 3 1 3 1 Z " fill="#FDFDFD" transform="translate(118,194)"/>
    <path d="M0 0 C3 1 3 1 3 1 Z " fill="#FDFDFD" transform="translate(62,193)"/>
    <path d="M0 0 C3 1 3 1 3 1 Z " fill="#FDFDFD" transform="translate(124,192)"/>
    <path d="M0 0 C3 1 3 1 3 1 Z " fill="#FDFDFD" transform="translate(85,154)"/>
    <path d="M0 0 C3 1 3 1 3 1 Z " fill="#FDFDFD" transform="translate(82,153)"/>
    <path d="" fill="#FEFEFE" transform="translate(0,0)"/>
    <path d="" fill="#FDFDFD" transform="translate(0,0)"/>
    <path d="" fill="#FEFEFE" transform="translate(0,0)"/>
    <path d="" fill="#FEFEFE" transform="translate(0,0)"/>
    <path d="" fill="#FEFEFE" transform="translate(0,0)"/>
    <path d="" fill="#FDFDFD" transform="translate(0,0)"/>
    <path d="" fill="#FDFDFD" transform="translate(0,0)"/>
    <path d="" fill="#FEFEFE" transform="translate(0,0)"/>
    <path d="" fill="#FDFDFD" transform="translate(0,0)"/>
    <path d="" fill="#FDFDFD" transform="translate(0,0)"/>
    <path d="" fill="#FEFEFE" transform="translate(0,0)"/>
    <path d="" fill="#FEFEFE" transform="translate(0,0)"/>
    <path d="" fill="#FEFEFE" transform="translate(0,0)"/>
    <path d="" fill="#FEFEFE" transform="translate(0,0)"/>
    <path d="" fill="#FEFEFE" transform="translate(0,0)"/>
    <path d="" fill="#FDFDFD" transform="translate(0,0)"/>
    <path d="" fill="#FDFDFD" transform="translate(0,0)"/>
    <path d="" fill="#FDFDFD" transform="translate(0,0)"/>
    <path d="" fill="#FDFDFD" transform="translate(0,0)"/>
    <path d="M0 0 C3 1 3 1 3 1 Z " fill="#FEFEFE" transform="translate(81,75)"/>
    <path d="" fill="#FEFEFE" transform="translate(0,0)"/>
    <path d="M0 0 C3 1 3 1 3 1 Z " fill="#FDFDFD" transform="translate(103,73)"/>
    <path d="M0 0 C3 1 3 1 3 1 Z " fill="#FDFDFD" transform="translate(86,73)"/>
    <path d="M0 0 C3 1 3 1 3 1 Z " fill="#FDFDFD" transform="translate(123,33)"/>
    <path d="M0 0 C3 1 3 1 3 1 Z " fill="#FEFEFE" transform="translate(69,33)"/>
    <path d="M0 0 C3 1 3 1 3 1 Z " fill="#FDFDFD" transform="translate(74,32)"/>
    <path d="M0 0 C2 1 2 1 2 1 Z " fill="#FDFDFD" transform="translate(261,355)"/>
    <path d="M0 0 C2 1 2 1 2 1 Z " fill="#FEFEFE" transform="translate(319,354)"/>
    <path d="M0 0 C2 1 2 1 2 1 Z " fill="#FEFEFE" transform="translate(257,354)"/>
    <path d="M0 0 C2 1 2 1 2 1 Z " fill="#FDFDFD" transform="translate(321,353)"/>
    <path d="M0 0 C2 1 2 1 2 1 Z " fill="#FDFDFD" transform="translate(255,353)"/>
    <path d="" fill="#FEFEFE" transform="translate(0,0)"/>
    <path d="M0 0 C2 1 2 1 2 1 Z " fill="#FEFEFE" transform="translate(325,351)"/>
    <path d="M0 0 C2 1 2 1 2 1 Z " fill="#FDFDFD" transform="translate(327,350)"/>
    <path d="M0 0 C2 1 2 1 2 1 Z " fill="#FDFDFD" transform="translate(249,350)"/>
    <path d="" fill="#FEFEFE" transform="translate(0,0)"/>
    <path d="M0 0 C2 1 2 1 2 1 Z " fill="#FDFDFD" transform="translate(332,347)"/>
    <path d="M0 0 C2 1 2 1 2 1 Z " fill="#FDFDFD" transform="translate(244,347)"/>
    <path d="" fill="#FEFEFE" transform="translate(0,0)"/>
    <path d="" fill="#FEFEFE" transform="translate(0,0)"/>
    <path d="M0 0 C2 1 2 1 2 1 Z " fill="#FEFEFE" transform="translate(335,345)"/>
    <path d="M0 0 C2 1 2 1 2 1 Z " fill="#FEFEFE" transform="translate(241,345)"/>
    <path d="" fill="#FDFDFD" transform="translate(0,0)"/>
    <path d="" fill="#FEFEFE" transform="translate(0,0)"/>
    <path d="M0 0 C2 1 2 1 2 1 Z " fill="#FEFEFE" transform="translate(236,341)"/>
    <path d="" fill="#FEFEFE" transform="translate(0,0)"/>
    <path d="" fill="#FEFEFE" transform="translate(0,0)"/>
    <path d="" fill="#FDFDFD" transform="translate(0,0)"/>
    <path d="" fill="#FDFDFD" transform="translate(0,0)"/>
    <path d="" fill="#FDFDFD" transform="translate(0,0)"/>
    <path d="" fill="#FEFEFE" transform="translate(0,0)"/>
    <path d="" fill="#FDFDFD" transform="translate(0,0)"/>
    <path d="" fill="#FEFEFE" transform="translate(0,0)"/>
    <path d="" fill="#FDFDFD" transform="translate(0,0)"/>
    <path d="" fill="#FDFDFD" transform="translate(0,0)"/>
    <path d="" fill="#FDFDFD" transform="translate(0,0)"/>
    <path d="" fill="#FDFDFD" transform="translate(0,0)"/>
    <path d="" fill="#FDFDFD" transform="translate(0,0)"/>
    <path d="" fill="#FEFEFE" transform="translate(0,0)"/>
    <path d="" fill="#FEFEFE" transform="translate(0,0)"/>
    <path d="" fill="#FEFEFE" transform="translate(0,0)"/>
    <path d="" fill="#FEFEFE" transform="translate(0,0)"/>
    <path d="" fill="#FDFDFD" transform="translate(0,0)"/>
    <path d="" fill="#FEFEFE" transform="translate(0,0)"/>
    <path d="M0 0 C2 1 2 1 2 1 Z " fill="#FDFDFD" transform="translate(277,314)"/>
    <path d="" fill="#FDFDFD" transform="translate(0,0)"/>
    <path d="" fill="#FEFEFE" transform="translate(0,0)"/>
    <path d="M0 0 C2 1 2 1 2 1 Z " fill="#FDFDFD" transform="translate(275,313)"/>
    <path d="" fill="#FEFEFE" transform="translate(0,0)"/>
    <path d="M0 0 C2 1 2 1 2 1 Z " fill="#FEFEFE" transform="translate(306,312)"/>
    <path d="" fill="#FDFDFD" transform="translate(0,0)"/>
    <path d="" fill="#FDFDFD" transform="translate(0,0)"/>
    <path d="" fill="#FEFEFE" transform="translate(0,0)"/>
    <path d="" fill="#FDFDFD" transform="translate(0,0)"/>
    <path d="" fill="#FEFEFE" transform="translate(0,0)"/>
    <path d="" fill="#FDFDFD" transform="translate(0,0)"/>
    <path d="" fill="#FDFDFD" transform="translate(0,0)"/>
    <path d="" fill="#FEFEFE" transform="translate(0,0)"/>
    <path d="" fill="#FEFEFE" transform="translate(0,0)"/>
    <path d="" fill="#FEFEFE" transform="translate(0,0)"/>
    <path d="" fill="#FEFEFE" transform="translate(0,0)"/>
    <path d="" fill="#FEFEFE" transform="translate(0,0)"/>
    <path d="" fill="#FEFEFE" transform="translate(0,0)"/>
    <path d="" fill="#FDFDFD" transform="translate(0,0)"/>
    <path d="" fill="#FDFDFD" transform="translate(0,0)"/>
    <path d="" fill="#FEFEFE" transform="translate(0,0)"/>
    <path d="" fill="#FEFEFE" transform="translate(0,0)"/>
    <path d="" fill="#FEFEFE" transform="translate(0,0)"/>
    <path d="" fill="#FEFEFE" transform="translate(0,0)"/>
    <path d="" fill="#FEFEFE" transform="translate(0,0)"/>
    <path d="" fill="#FEFEFE" transform="translate(0,0)"/>
    <path d="" fill="#FEFEFE" transform="translate(0,0)"/>
    <path d="" fill="#FEFEFE" transform="translate(0,0)"/>
    <path d="" fill="#FDFDFD" transform="translate(0,0)"/>
    <path d="" fill="#FEFEFE" transform="translate(0,0)"/>
    <path d="" fill="#FEFEFE" transform="translate(0,0)"/>
    <path d="" fill="#FEFEFE" transform="translate(0,0)"/>
    <path d="" fill="#FEFEFE" transform="translate(0,0)"/>
    <path d="" fill="#FDFDFD" transform="translate(0,0)"/>
    <path d="" fill="#FDFDFD" transform="translate(0,0)"/>
    <path d="" fill="#FEFEFE" transform="translate(0,0)"/>
    <path d="" fill="#FEFEFE" transform="translate(0,0)"/>
    <path d="" fill="#FDFDFD" transform="translate(0,0)"/>
    <path d="" fill="#FDFDFD" transform="translate(0,0)"/>
    <path d="" fill="#FDFDFD" transform="translate(0,0)"/>
    <path d="" fill="#FEFEFE" transform="translate(0,0)"/>
    <path d="" fill="#FDFDFD" transform="translate(0,0)"/>
    <path d="" fill="#FDFDFD" transform="translate(0,0)"/>
    <path d="" fill="#FEFEFE" transform="translate(0,0)"/>
    <path d="" fill="#FDFDFD" transform="translate(0,0)"/>
    <path d="" fill="#FEFEFE" transform="translate(0,0)"/>
    <path d="" fill="#FDFDFD" transform="translate(0,0)"/>
    <path d="" fill="#FEFEFE" transform="translate(0,0)"/>
    <path d="" fill="#FDFDFD" transform="translate(0,0)"/>
    <path d="" fill="#FDFDFD" transform="translate(0,0)"/>
    <path d="" fill="#FEFEFE" transform="translate(0,0)"/>
    <path d="" fill="#FEFEFE" transform="translate(0,0)"/>
    <path d="" fill="#FEFEFE" transform="translate(0,0)"/>
    <path d="" fill="#FDFDFD" transform="translate(0,0)"/>
    <path d="" fill="#FEFEFE" transform="translate(0,0)"/>
    <path d="" fill="#FEFEFE" transform="translate(0,0)"/>
    <path d="" fill="#FEFEFE" transform="translate(0,0)"/>
    <path d="" fill="#FEFEFE" transform="translate(0,0)"/>
    <path d="" fill="#FDFDFD" transform="translate(0,0)"/>
    <path d="M0 0 C2 1 2 1 2 1 Z " fill="#FEFEFE" transform="translate(304,237)"/>
    <path d="M0 0 C2 1 2 1 2 1 Z " fill="#FDFDFD" transform="translate(302,236)"/>
    <path d="" fill="#FEFEFE" transform="translate(0,0)"/>
    <path d="M0 0 C2 1 2 1 2 1 Z " fill="#FDFDFD" transform="translate(300,235)"/>
    <path d="" fill="#FDFDFD" transform="translate(0,0)"/>
    <path d="" fill="#FEFEFE" transform="translate(0,0)"/>
    <path d="" fill="#FEFEFE" transform="translate(0,0)"/>
    <path d="" fill="#FEFEFE" transform="translate(0,0)"/>
    <path d="" fill="#FEFEFE" transform="translate(0,0)"/>
    <path d="" fill="#FEFEFE" transform="translate(0,0)"/>
    <path d="" fill="#FDFDFD" transform="translate(0,0)"/>
    <path d="" fill="#FDFDFD" transform="translate(0,0)"/>
    <path d="" fill="#FEFEFE" transform="translate(0,0)"/>
    <path d="" fill="#FDFDFD" transform="translate(0,0)"/>
    <path d="" fill="#FDFDFD" transform="translate(0,0)"/>
    <path d="" fill="#FDFDFD" transform="translate(0,0)"/>
    <path d="" fill="#FDFDFD" transform="translate(0,0)"/>
    <path d="" fill="#FEFEFE" transform="translate(0,0)"/>
    <path d="" fill="#FEFEFE" transform="translate(0,0)"/>
    <path d="" fill="#FEFEFE" transform="translate(0,0)"/>
    <path d="" fill="#FEFEFE" transform="translate(0,0)"/>
    <path d="" fill="#FEFEFE" transform="translate(0,0)"/>
    <path d="" fill="#FEFEFE" transform="translate(0,0)"/>
    <path d="" fill="#FDFDFD" transform="translate(0,0)"/>
    <path d="" fill="#FDFDFD" transform="translate(0,0)"/>
    <path d="" fill="#FEFEFE" transform="translate(0,0)"/>
    <path d="" fill="#FEFEFE" transform="translate(0,0)"/>
    <path d="M0 0 C2 1 2 1 2 1 Z " fill="#FEFEFE" transform="translate(238,210)"/>
    <path d="" fill="#FDFDFD" transform="translate(0,0)"/>
    <path d="" fill="#FEFEFE" transform="translate(0,0)"/>
    <path d="M0 0 C2 1 2 1 2 1 Z " fill="#FEFEFE" transform="translate(343,207)"/>
    <path d="" fill="#FDFDFD" transform="translate(0,0)"/>
    <path d="M0 0 C2 1 2 1 2 1 Z " fill="#FDFDFD" transform="translate(244,205)"/>
    <path d="" fill="#FDFDFD" transform="translate(0,0)"/>
    <path d="" fill="#FDFDFD" transform="translate(0,0)"/>
    <path d="M0 0 C2 1 2 1 2 1 Z " fill="#FEFEFE" transform="translate(335,201)"/>
    <path d="M0 0 C2 1 2 1 2 1 Z " fill="#FEFEFE" transform="translate(250,201)"/>
    <path d="" fill="#FEFEFE" transform="translate(0,0)"/>
    <path d="M0 0 C2 1 2 1 2 1 Z " fill="#FDFDFD" transform="translate(331,199)"/>
    <path d="M0 0 C2 1 2 1 2 1 Z " fill="#FDFDFD" transform="translate(254,199)"/>
    <path d="M0 0 C2 1 2 1 2 1 Z " fill="#FEFEFE" transform="translate(256,198)"/>
    <path d="" fill="#FDFDFD" transform="translate(0,0)"/>
    <path d="M0 0 C2 1 2 1 2 1 Z " fill="#FDFDFD" transform="translate(259,197)"/>
    <path d="M0 0 C2 1 2 1 2 1 Z " fill="#FEFEFE" transform="translate(324,196)"/>
    <path d="M0 0 C2 1 2 1 2 1 Z " fill="#FDFDFD" transform="translate(261,196)"/>
    <path d="M0 0 C2 1 2 1 2 1 Z " fill="#FEFEFE" transform="translate(322,195)"/>
    <path d="M0 0 C2 1 2 1 2 1 Z " fill="#FEFEFE" transform="translate(263,195)"/>
    <path d="" fill="#FDFDFD" transform="translate(0,0)"/>
    <path d="M0 0 C2 1 2 1 2 1 Z " fill="#FDFDFD" transform="translate(268,194)"/>
    <path d="M0 0 C2 1 2 1 2 1 Z " fill="#FDFDFD" transform="translate(65,194)"/>
    <path d="M0 0 C2 1 2 1 2 1 Z " fill="#FEFEFE" transform="translate(59,192)"/>
    <path d="M0 0 C2 1 2 1 2 1 Z " fill="#FDFDFD" transform="translate(57,191)"/>
    <path d="" fill="#FDFDFD" transform="translate(0,0)"/>
    <path d="M0 0 C2 1 2 1 2 1 Z " fill="#FEFEFE" transform="translate(128,190)"/>
    <path d="" fill="#FDFDFD" transform="translate(0,0)"/>
    <path d="M0 0 C2 1 2 1 2 1 Z " fill="#FEFEFE" transform="translate(131,189)"/>
    <path d="M0 0 C2 1 2 1 2 1 Z " fill="#FDFDFD" transform="translate(51,188)"/>
    <path d="" fill="#FDFDFD" transform="translate(0,0)"/>
    <path d="M0 0 C2 1 2 1 2 1 Z " fill="#FEFEFE" transform="translate(136,186)"/>
    <path d="M0 0 C2 1 2 1 2 1 Z " fill="#FEFEFE" transform="translate(48,186)"/>
    <path d="" fill="#FEFEFE" transform="translate(0,0)"/>
    <path d="" fill="#FEFEFE" transform="translate(0,0)"/>
    <path d="" fill="#FDFDFD" transform="translate(0,0)"/>
    <path d="" fill="#FEFEFE" transform="translate(0,0)"/>
    <path d="" fill="#FEFEFE" transform="translate(0,0)"/>
    <path d="" fill="#FEFEFE" transform="translate(0,0)"/>
    <path d="" fill="#FEFEFE" transform="translate(0,0)"/>
    <path d="" fill="#FDFDFD" transform="translate(0,0)"/>
    <path d="" fill="#FEFEFE" transform="translate(0,0)"/>
    <path d="" fill="#FDFDFD" transform="translate(0,0)"/>
    <path d="" fill="#FEFEFE" transform="translate(0,0)"/>
    <path d="" fill="#FEFEFE" transform="translate(0,0)"/>
    <path d="" fill="#FEFEFE" transform="translate(0,0)"/>
    <path d="" fill="#FDFDFD" transform="translate(0,0)"/>
    <path d="" fill="#FDFDFD" transform="translate(0,0)"/>
    <path d="" fill="#FDFDFD" transform="translate(0,0)"/>
    <path d="" fill="#FEFEFE" transform="translate(0,0)"/>
    <path d="" fill="#FEFEFE" transform="translate(0,0)"/>
    <path d="" fill="#FEFEFE" transform="translate(0,0)"/>
    <path d="" fill="#FEFEFE" transform="translate(0,0)"/>
    <path d="" fill="#FEFEFE" transform="translate(0,0)"/>
    <path d="" fill="#FEFEFE" transform="translate(0,0)"/>
    <path d="" fill="#FEFEFE" transform="translate(0,0)"/>
    <path d="" fill="#FDFDFD" transform="translate(0,0)"/>
    <path d="" fill="#FEFEFE" transform="translate(0,0)"/>
    <path d="" fill="#FEFEFE" transform="translate(0,0)"/>
    <path d="" fill="#FEFEFE" transform="translate(0,0)"/>
    <path d="M0 0 C2 1 2 1 2 1 Z " fill="#FDFDFD" transform="translate(105,153)"/>
    <path d="" fill="#FEFEFE" transform="translate(0,0)"/>
    <path d="M0 0 C2 1 2 1 2 1 Z " fill="#FEFEFE" transform="translate(108,152)"/>
    <path d="M0 0 C2 1 2 1 2 1 Z " fill="#FEFEFE" transform="translate(78,151)"/>
    <path d="" fill="#FEFEFE" transform="translate(0,0)"/>
    <path d="" fill="#FDFDFD" transform="translate(0,0)"/>
    <path d="" fill="#FEFEFE" transform="translate(0,0)"/>
    <path d="" fill="#FDFDFD" transform="translate(0,0)"/>
    <path d="" fill="#FDFDFD" transform="translate(0,0)"/>
    <path d="" fill="#FDFDFD" transform="translate(0,0)"/>
    <path d="" fill="#FDFDFD" transform="translate(0,0)"/>
    <path d="" fill="#FEFEFE" transform="translate(0,0)"/>
    <path d="" fill="#FEFEFE" transform="translate(0,0)"/>
    <path d="" fill="#FEFEFE" transform="translate(0,0)"/>
    <path d="" fill="#FEFEFE" transform="translate(0,0)"/>
    <path d="" fill="#FDFDFD" transform="translate(0,0)"/>
    <path d="" fill="#FEFEFE" transform="translate(0,0)"/>
    <path d="" fill="#FDFDFD" transform="translate(0,0)"/>
    <path d="" fill="#FEFEFE" transform="translate(0,0)"/>
    <path d="" fill="#FDFDFD" transform="translate(0,0)"/>
    <path d="" fill="#FDFDFD" transform="translate(0,0)"/>
    <path d="" fill="#FDFDFD" transform="translate(0,0)"/>
    <path d="" fill="#FDFDFD" transform="translate(0,0)"/>
    <path d="" fill="#FDFDFD" transform="translate(0,0)"/>
    <path d="" fill="#FEFEFE" transform="translate(0,0)"/>
    <path d="" fill="#FDFDFD" transform="translate(0,0)"/>
    <path d="" fill="#FDFDFD" transform="translate(0,0)"/>
    <path d="" fill="#FEFEFE" transform="translate(0,0)"/>
    <path d="" fill="#FEFEFE" transform="translate(0,0)"/>
    <path d="" fill="#FEFEFE" transform="translate(0,0)"/>
    <path d="" fill="#FEFEFE" transform="translate(0,0)"/>
    <path d="" fill="#FEFEFE" transform="translate(0,0)"/>
    <path d="" fill="#FEFEFE" transform="translate(0,0)"/>
    <path d="" fill="#FEFEFE" transform="translate(0,0)"/>
    <path d="" fill="#FDFDFD" transform="translate(0,0)"/>
    <path d="" fill="#FEFEFE" transform="translate(0,0)"/>
    <path d="" fill="#FEFEFE" transform="translate(0,0)"/>
    <path d="" fill="#FDFDFD" transform="translate(0,0)"/>
    <path d="" fill="#FEFEFE" transform="translate(0,0)"/>
    <path d="" fill="#FEFEFE" transform="translate(0,0)"/>
    <path d="" fill="#FEFEFE" transform="translate(0,0)"/>
    <path d="" fill="#FDFDFD" transform="translate(0,0)"/>
    <path d="" fill="#FEFEFE" transform="translate(0,0)"/>
    <path d="" fill="#FEFEFE" transform="translate(0,0)"/>
    <path d="" fill="#FEFEFE" transform="translate(0,0)"/>
    <path d="" fill="#FEFEFE" transform="translate(0,0)"/>
    <path d="" fill="#FEFEFE" transform="translate(0,0)"/>
    <path d="" fill="#FDFDFD" transform="translate(0,0)"/>
    <path d="" fill="#FDFDFD" transform="translate(0,0)"/>
    <path d="" fill="#FEFEFE" transform="translate(0,0)"/>
    <path d="" fill="#FEFEFE" transform="translate(0,0)"/>
    <path d="" fill="#FEFEFE" transform="translate(0,0)"/>
    <path d="" fill="#FEFEFE" transform="translate(0,0)"/>
    <path d="M0 0 C2 1 2 1 2 1 Z " fill="#FEFEFE" transform="translate(78,77)"/>
    <path d="" fill="#FDFDFD" transform="translate(0,0)"/>
    <path d="" fill="#FDFDFD" transform="translate(0,0)"/>
    <path d="" fill="#FDFDFD" transform="translate(0,0)"/>
    <path d="M0 0 C2 1 2 1 2 1 Z " fill="#FDFDFD" transform="translate(106,74)"/>
    <path d="M0 0 C2 1 2 1 2 1 Z " fill="#FDFDFD" transform="translate(84,74)"/>
    <path d="" fill="#FEFEFE" transform="translate(0,0)"/>
    <path d="" fill="#FDFDFD" transform="translate(0,0)"/>
    <path d="" fill="#FDFDFD" transform="translate(0,0)"/>
    <path d="" fill="#FEFEFE" transform="translate(0,0)"/>
    <path d="" fill="#FDFDFD" transform="translate(0,0)"/>
    <path d="" fill="#FEFEFE" transform="translate(0,0)"/>
    <path d="" fill="#FDFDFD" transform="translate(0,0)"/>
    <path d="" fill="#FEFEFE" transform="translate(0,0)"/>
    <path d="" fill="#FEFEFE" transform="translate(0,0)"/>
    <path d="" fill="#FDFDFD" transform="translate(0,0)"/>
    <path d="" fill="#FDFDFD" transform="translate(0,0)"/>
    <path d="" fill="#FEFEFE" transform="translate(0,0)"/>
    <path d="" fill="#FEFEFE" transform="translate(0,0)"/>
    <path d="" fill="#FEFEFE" transform="translate(0,0)"/>
    <path d="" fill="#FEFEFE" transform="translate(0,0)"/>
    <path d="" fill="#FEFEFE" transform="translate(0,0)"/>
    <path d="" fill="#FEFEFE" transform="translate(0,0)"/>
    <path d="" fill="#FDFDFD" transform="translate(0,0)"/>
    <path d="" fill="#FEFEFE" transform="translate(0,0)"/>
    <path d="" fill="#FEFEFE" transform="translate(0,0)"/>
    <path d="M0 0 C2 1 2 1 2 1 Z " fill="#FEFEFE" transform="translate(147,46)"/>
    <path d="M0 0 C2 1 2 1 2 1 Z " fill="#FDFDFD" transform="translate(45,46)"/>
    <path d="" fill="#FEFEFE" transform="translate(0,0)"/>
    <path d="M0 0 C2 1 2 1 2 1 Z " fill="#FDFDFD" transform="translate(143,43)"/>
    <path d="M0 0 C2 1 2 1 2 1 Z " fill="#FDFDFD" transform="translate(49,43)"/>
    <path d="" fill="#FEFEFE" transform="translate(0,0)"/>
    <path d="" fill="#FDFDFD" transform="translate(0,0)"/>
    <path d="M0 0 C2 1 2 1 2 1 Z " fill="#FDFDFD" transform="translate(54,40)"/>
    <path d="" fill="#FEFEFE" transform="translate(0,0)"/>
    <path d="" fill="#FDFDFD" transform="translate(0,0)"/>
    <path d="M0 0 C2 1 2 1 2 1 Z " fill="#FDFDFD" transform="translate(133,37)"/>
    <path d="M0 0 C2 1 2 1 2 1 Z " fill="#FDFDFD" transform="translate(59,37)"/>
    <path d="M0 0 C2 1 2 1 2 1 Z " fill="#FEFEFE" transform="translate(61,36)"/>
    <path d="M0 0 C2 1 2 1 2 1 Z " fill="#FDFDFD" transform="translate(128,35)"/>
    <path d="M0 0 C2 1 2 1 2 1 Z " fill="#FDFDFD" transform="translate(65,35)"/>
    <path d="M0 0 C2 1 2 1 2 1 Z " fill="#FDFDFD" transform="translate(126,34)"/>
    <path d="M0 0 C2 1 2 1 2 1 Z " fill="#FDFDFD" transform="translate(67,34)"/>
    <path d="" fill="#FDFDFD" transform="translate(0,0)"/>
    <path d="" fill="#FEFEFE" transform="translate(0,0)"/>
    <path d="" fill="#FEFEFE" transform="translate(0,0)"/>
    <path d="" fill="#FDFDFD" transform="translate(0,0)"/>
    <path d="" fill="#FDFDFD" transform="translate(0,0)"/>
    <path d="" fill="#FEFEFE" transform="translate(0,0)"/>
    <path d="" fill="#FEFEFE" transform="translate(0,0)"/>
    <path d="" fill="#FEFEFE" transform="translate(0,0)"/>
    <path d="" fill="#FEFEFE" transform="translate(0,0)"/>
    <path d="" fill="#FDFDFD" transform="translate(0,0)"/>
    <path d="" fill="#FEFEFE" transform="translate(0,0)"/>
    <path d="" fill="#FEFEFE" transform="translate(0,0)"/>
    <path d="" fill="#FEFEFE" transform="translate(0,0)"/>
    <path d="" fill="#FDFDFD" transform="translate(0,0)"/>
    <path d="" fill="#FEFEFE" transform="translate(0,0)"/>
    <path d="" fill="#FEFEFE" transform="translate(0,0)"/>
    <path d="" fill="#FDFDFD" transform="translate(0,0)"/>
    <path d="" fill="#FEFEFE" transform="translate(0,0)"/>
    <path d="" fill="#FEFEFE" transform="translate(0,0)"/>
    <path d="" fill="#FDFDFD" transform="translate(0,0)"/>
    <path d="" fill="#FEFEFE" transform="translate(0,0)"/>
    <path d="" fill="#FEFEFE" transform="translate(0,0)"/>
    <path d="" fill="#FDFDFD" transform="translate(0,0)"/>
    <path d="" fill="#FEFEFE" transform="translate(0,0)"/>
    <path d="" fill="#FEFEFE" transform="translate(0,0)"/>
    <path d="" fill="#FEFEFE" transform="translate(0,0)"/>
    <path d="" fill="#FDFDFD" transform="translate(0,0)"/>
    <path d="" fill="#FEFEFE" transform="translate(0,0)"/>
    <path d="" fill="#FDFDFD" transform="translate(0,0)"/>
    <path d="" fill="#FEFEFE" transform="translate(0,0)"/>
    <path d="" fill="#FEFEFE" transform="translate(0,0)"/>
    <path d="" fill="#FEFEFE" transform="translate(0,0)"/>
    <path d="" fill="#FEFEFE" transform="translate(0,0)"/>
    <path d="" fill="#FEFEFE" transform="translate(0,0)"/>
    <path d="" fill="#FEFEFE" transform="translate(0,0)"/>
    <path d="" fill="#FDFDFD" transform="translate(0,0)"/>
    <path d="" fill="#FEFEFE" transform="translate(0,0)"/>
    <path d="" fill="#FEFEFE" transform="translate(0,0)"/>
    <path d="" fill="#FEFEFE" transform="translate(0,0)"/>
    <path d="" fill="#FEFEFE" transform="translate(0,0)"/>
    <path d="" fill="#FEFEFE" transform="translate(0,0)"/>
    <path d="" fill="#FEFEFE" transform="translate(0,0)"/>
    <path d="" fill="#FEFEFE" transform="translate(0,0)"/>
    <path d="" fill="#FEFEFE" transform="translate(0,0)"/>
    <path d="" fill="#FEFEFE" transform="translate(0,0)"/>
    <path d="" fill="#FEFEFE" transform="translate(0,0)"/>
    <path d="" fill="#FDFDFD" transform="translate(0,0)"/>
    <path d="" fill="#FDFDFD" transform="translate(0,0)"/>
    <path d="" fill="#FEFEFE" transform="translate(0,0)"/>
    <path d="" fill="#FEFEFE" transform="translate(0,0)"/>
    <path d="" fill="#FDFDFD" transform="translate(0,0)"/>
    <path d="" fill="#FEFEFE" transform="translate(0,0)"/>
    <path d="" fill="#FDFDFD" transform="translate(0,0)"/>
    <path d="" fill="#FEFEFE" transform="translate(0,0)"/>
    <path d="" fill="#FEFEFE" transform="translate(0,0)"/>
    <path d="" fill="#FEFEFE" transform="translate(0,0)"/>
    <path d="" fill="#FEFEFE" transform="translate(0,0)"/>
    <path d="" fill="#FEFEFE" transform="translate(0,0)"/>
    <path d="" fill="#FEFEFE" transform="translate(0,0)"/>
    <path d="" fill="#FEFEFE" transform="translate(0,0)"/>
    <path d="" fill="#FEFEFE" transform="translate(0,0)"/>
    <path d="" fill="#FEFEFE" transform="translate(0,0)"/>
    <path d="" fill="#FEFEFE" transform="translate(0,0)"/>
    <path d="" fill="#FEFEFE" transform="translate(0,0)"/>
    <path d="" fill="#FDFDFD" transform="translate(0,0)"/>
    <path d="" fill="#FEFEFE" transform="translate(0,0)"/>
    <path d="" fill="#FEFEFE" transform="translate(0,0)"/>
    <path d="" fill="#FEFEFE" transform="translate(0,0)"/>
    <path d="" fill="#FEFEFE" transform="translate(0,0)"/>
    <path d="" fill="#FEFEFE" transform="translate(0,0)"/>
    <path d="" fill="#FEFEFE" transform="translate(0,0)"/>
    <path d="" fill="#FDFDFD" transform="translate(0,0)"/>
    <path d="" fill="#FEFEFE" transform="translate(0,0)"/>
    <path d="" fill="#FEFEFE" transform="translate(0,0)"/>
    <path d="" fill="#FDFDFD" transform="translate(0,0)"/>
    <path d="" fill="#FEFEFE" transform="translate(0,0)"/>
    <path d="" fill="#FEFEFE" transform="translate(0,0)"/>
    <path d="" fill="#FEFEFE" transform="translate(0,0)"/>
    <path d="" fill="#FEFEFE" transform="translate(0,0)"/>
    <path d="" fill="#FEFEFE" transform="translate(0,0)"/>
    <path d="" fill="#FEFEFE" transform="translate(0,0)"/>
    <path d="" fill="#FEFEFE" transform="translate(0,0)"/>
    <path d="" fill="#FEFEFE" transform="translate(0,0)"/>
    <path d="" fill="#FEFEFE" transform="translate(0,0)"/>
    <path d="" fill="#FEFEFE" transform="translate(0,0)"/>
    <path d="" fill="#FEFEFE" transform="translate(0,0)"/>
    <path d="" fill="#FEFEFE" transform="translate(0,0)"/>
    <path d="" fill="#FEFEFE" transform="translate(0,0)"/>
    <path d="" fill="#FEFEFE" transform="translate(0,0)"/>
    <path d="" fill="#FDFDFD" transform="translate(0,0)"/>
    <path d="" fill="#FEFEFE" transform="translate(0,0)"/>
    <path d="" fill="#FEFEFE" transform="translate(0,0)"/>
    <path d="" fill="#FEFEFE" transform="translate(0,0)"/>
    <path d="" fill="#FDFDFD" transform="translate(0,0)"/>
    <path d="" fill="#FEFEFE" transform="translate(0,0)"/>
    <path d="" fill="#FEFEFE" transform="translate(0,0)"/>
    <path d="" fill="#FEFEFE" transform="translate(0,0)"/>
    <path d="" fill="#FEFEFE" transform="translate(0,0)"/>
    <path d="" fill="#FEFEFE" transform="translate(0,0)"/>
    <path d="" fill="#FDFDFD" transform="translate(0,0)"/>
    <path d="" fill="#FEFEFE" transform="translate(0,0)"/>
    <path d="" fill="#FEFEFE" transform="translate(0,0)"/>
    <path d="" fill="#FDFDFD" transform="translate(0,0)"/>
    <path d="" fill="#FEFEFE" transform="translate(0,0)"/>
    <path d="" fill="#FEFEFE" transform="translate(0,0)"/>
    <path d="" fill="#FEFEFE" transform="translate(0,0)"/>
    <path d="" fill="#FEFEFE" transform="translate(0,0)"/>
    <path d="" fill="#FEFEFE" transform="translate(0,0)"/>
    <path d="" fill="#FEFEFE" transform="translate(0,0)"/>
    <path d="" fill="#FEFEFE" transform="translate(0,0)"/>
    <path d="" fill="#FEFEFE" transform="translate(0,0)"/>
    <path d="" fill="#FDFDFD" transform="translate(0,0)"/>
    <path d="" fill="#FEFEFE" transform="translate(0,0)"/>
    <path d="" fill="#FDFDFD" transform="translate(0,0)"/>
    <path d="" fill="#FEFEFE" transform="translate(0,0)"/>
    <path d="" fill="#FEFEFE" transform="translate(0,0)"/>
    <path d="" fill="#FEFEFE" transform="translate(0,0)"/>
    <path d="" fill="#FEFEFE" transform="translate(0,0)"/>
    <path d="" fill="#FEFEFE" transform="translate(0,0)"/>
    <path d="" fill="#FDFDFD" transform="translate(0,0)"/>
    <path d="" fill="#FEFEFE" transform="translate(0,0)"/>
    <path d="" fill="#FDFDFD" transform="translate(0,0)"/>
    <path d="" fill="#FEFEFE" transform="translate(0,0)"/>
    <path d="" fill="#FEFEFE" transform="translate(0,0)"/>
    <path d="" fill="#FEFEFE" transform="translate(0,0)"/>
    <path d="" fill="#FDFDFD" transform="translate(0,0)"/>
    <path d="" fill="#FEFEFE" transform="translate(0,0)"/>
    <path d="" fill="#FDFDFD" transform="translate(0,0)"/>
    <path d="" fill="#FDFDFD" transform="translate(0,0)"/>
    <path d="" fill="#FEFEFE" transform="translate(0,0)"/>
    <path d="" fill="#FEFEFE" transform="translate(0,0)"/>
    <path d="" fill="#FEFEFE" transform="translate(0,0)"/>
    <path d="" fill="#FEFEFE" transform="translate(0,0)"/>
    <path d="" fill="#FEFEFE" transform="translate(0,0)"/>
    <path d="" fill="#FEFEFE" transform="translate(0,0)"/>
    <path d="" fill="#FEFEFE" transform="translate(0,0)"/>
    <path d="" fill="#FEFEFE" transform="translate(0,0)"/>
    <path d="" fill="#FDFDFD" transform="translate(0,0)"/>
    <path d="" fill="#FEFEFE" transform="translate(0,0)"/>
    <path d="" fill="#FEFEFE" transform="translate(0,0)"/>
    <path d="" fill="#FDFDFD" transform="translate(0,0)"/>
    <path d="" fill="#FEFEFE" transform="translate(0,0)"/>
    <path d="" fill="#FEFEFE" transform="translate(0,0)"/>
    <path d="" fill="#FDFDFD" transform="translate(0,0)"/>
    <path d="" fill="#FEFEFE" transform="translate(0,0)"/>
    <path d="" fill="#FEFEFE" transform="translate(0,0)"/>
    <path d="" fill="#FEFEFE" transform="translate(0,0)"/>
    <path d="" fill="#FDFDFD" transform="translate(0,0)"/>
    <path d="" fill="#FEFEFE" transform="translate(0,0)"/>
    <path d="" fill="#FEFEFE" transform="translate(0,0)"/>
    <path d="" fill="#FEFEFE" transform="translate(0,0)"/>
    <path d="" fill="#FEFEFE" transform="translate(0,0)"/>
    <path d="" fill="#FDFDFD" transform="translate(0,0)"/>
    <path d="" fill="#FEFEFE" transform="translate(0,0)"/>
    <path d="" fill="#FEFEFE" transform="translate(0,0)"/>
    <path d="" fill="#FEFEFE" transform="translate(0,0)"/>
    <path d="" fill="#FEFEFE" transform="translate(0,0)"/>
    <path d="" fill="#FEFEFE" transform="translate(0,0)"/>
    <path d="" fill="#FEFEFE" transform="translate(0,0)"/>
    <path d="" fill="#FDFDFD" transform="translate(0,0)"/>
    <path d="" fill="#FEFEFE" transform="translate(0,0)"/>
    <path d="" fill="#FEFEFE" transform="translate(0,0)"/>
    <path d="" fill="#FEFEFE" transform="translate(0,0)"/>
    <path d="" fill="#FEFEFE" transform="translate(0,0)"/>
    <path d="" fill="#FEFEFE" transform="translate(0,0)"/>
    <path d="" fill="#FEFEFE" transform="translate(0,0)"/>
    <path d="" fill="#FEFEFE" transform="translate(0,0)"/>
    <path d="" fill="#FEFEFE" transform="translate(0,0)"/>
    <path d="" fill="#FEFEFE" transform="translate(0,0)"/>
    <path d="" fill="#FDFDFD" transform="translate(0,0)"/>
    <path d="" fill="#FEFEFE" transform="translate(0,0)"/>
    <path d="" fill="#FEFEFE" transform="translate(0,0)"/>
    <path d="" fill="#FDFDFD" transform="translate(0,0)"/>
    <path d="" fill="#FEFEFE" transform="translate(0,0)"/>
    <path d="" fill="#FDFDFD" transform="translate(0,0)"/>
    <path d="" fill="#FEFEFE" transform="translate(0,0)"/>
    <path d="" fill="#FEFEFE" transform="translate(0,0)"/>
    <path d="" fill="#FEFEFE" transform="translate(0,0)"/>
    <path d="" fill="#FEFEFE" transform="translate(0,0)"/>
    <path d="" fill="#FDFDFD" transform="translate(0,0)"/>
    <path d="" fill="#FEFEFE" transform="translate(0,0)"/>
    <path d="" fill="#FEFEFE" transform="translate(0,0)"/>
    <path d="" fill="#FEFEFE" transform="translate(0,0)"/>
    <path d="" fill="#FEFEFE" transform="translate(0,0)"/>
    <path d="" fill="#FEFEFE" transform="translate(0,0)"/>
    <path d="" fill="#FDFDFD" transform="translate(0,0)"/>
    <path d="" fill="#FEFEFE" transform="translate(0,0)"/>
    <path d="" fill="#FEFEFE" transform="translate(0,0)"/>
    <path d="" fill="#FEFEFE" transform="translate(0,0)"/>
    <path d="" fill="#FDFDFD" transform="translate(0,0)"/>
    <path d="" fill="#FEFEFE" transform="translate(0,0)"/>
    <path d="" fill="#FEFEFE" transform="translate(0,0)"/>
    <path d="" fill="#FDFDFD" transform="translate(0,0)"/>
    <path d="" fill="#FEFEFE" transform="translate(0,0)"/>
    <path d="" fill="#FEFEFE" transform="translate(0,0)"/>
    <path d="" fill="#FEFEFE" transform="translate(0,0)"/>
    <path d="" fill="#FEFEFE" transform="translate(0,0)"/>
    <path d="" fill="#FDFDFD" transform="translate(0,0)"/>
    <path d="" fill="#FDFDFD" transform="translate(0,0)"/>
    <path d="" fill="#FEFEFE" transform="translate(0,0)"/>
    <path d="" fill="#FDFDFD" transform="translate(0,0)"/>
    <path d="" fill="#FEFEFE" transform="translate(0,0)"/>
    <path d="" fill="#FEFEFE" transform="translate(0,0)"/>
    <path d="" fill="#FDFDFD" transform="translate(0,0)"/>
    <path d="" fill="#FDFDFD" transform="translate(0,0)"/>
    <path d="" fill="#FDFDFD" transform="translate(0,0)"/>
    <path d="" fill="#FEFEFE" transform="translate(0,0)"/>
    <path d="" fill="#FEFEFE" transform="translate(0,0)"/>
    <path d="" fill="#FEFEFE" transform="translate(0,0)"/>
    <path d="" fill="#FDFDFD" transform="translate(0,0)"/>
    <path d="" fill="#FEFEFE" transform="translate(0,0)"/>
    <path d="" fill="#FDFDFD" transform="translate(0,0)"/>
    <path d="" fill="#FDFDFD" transform="translate(0,0)"/>
    <path d="" fill="#FEFEFE" transform="translate(0,0)"/>
    <path d="" fill="#FEFEFE" transform="translate(0,0)"/>
    <path d="" fill="#FDFDFD" transform="translate(0,0)"/>
    <path d="" fill="#FEFEFE" transform="translate(0,0)"/>
    <path d="" fill="#FDFDFD" transform="translate(0,0)"/>
    <path d="" fill="#FEFEFE" transform="translate(0,0)"/>
    <path d="" fill="#FDFDFD" transform="translate(0,0)"/>
    <path d="" fill="#FEFEFE" transform="translate(0,0)"/>
    <path d="" fill="#FEFEFE" transform="translate(0,0)"/>
    <path d="" fill="#FEFEFE" transform="translate(0,0)"/>
    <path d="" fill="#FEFEFE" transform="translate(0,0)"/>
    <path d="" fill="#FEFEFE" transform="translate(0,0)"/>
    <path d="" fill="#FEFEFE" transform="translate(0,0)"/>
    <path d="" fill="#FDFDFD" transform="translate(0,0)"/>
    <path d="" fill="#FDFDFD" transform="translate(0,0)"/>
    <path d="" fill="#FEFEFE" transform="translate(0,0)"/>
    <path d="" fill="#FEFEFE" transform="translate(0,0)"/>
    <path d="" fill="#FEFEFE" transform="translate(0,0)"/>
    <path d="" fill="#FEFEFE" transform="translate(0,0)"/>
    <path d="" fill="#FDFDFD" transform="translate(0,0)"/>
    <path d="" fill="#FEFEFE" transform="translate(0,0)"/>
    <path d="" fill="#FEFEFE" transform="translate(0,0)"/>
    <path d="" fill="#FDFDFD" transform="translate(0,0)"/>
    <path d="" fill="#FDFDFD" transform="translate(0,0)"/>
    <path d="" fill="#FEFEFE" transform="translate(0,0)"/>
    <path d="" fill="#FEFEFE" transform="translate(0,0)"/>
    <path d="" fill="#FDFDFD" transform="translate(0,0)"/>
    <path d="" fill="#FEFEFE" transform="translate(0,0)"/>
    <path d="" fill="#FDFDFD" transform="translate(0,0)"/>
    <path d="" fill="#FEFEFE" transform="translate(0,0)"/>
    <path d="" fill="#FDFDFD" transform="translate(0,0)"/>
    <path d="" fill="#FDFDFD" transform="translate(0,0)"/>
    <path d="" fill="#FEFEFE" transform="translate(0,0)"/>
    <path d="" fill="#FEFEFE" transform="translate(0,0)"/>
    <path d="" fill="#FEFEFE" transform="translate(0,0)"/>
    <path d="" fill="#FEFEFE" transform="translate(0,0)"/>
    <path d="" fill="#FDFDFD" transform="translate(0,0)"/>
    <path d="" fill="#FEFEFE" transform="translate(0,0)"/>
    <path d="" fill="#FEFEFE" transform="translate(0,0)"/>
    <path d="" fill="#FDFDFD" transform="translate(0,0)"/>
    <path d="" fill="#FEFEFE" transform="translate(0,0)"/>
    <path d="" fill="#FDFDFD" transform="translate(0,0)"/>
    <path d="" fill="#FEFEFE" transform="translate(0,0)"/>
    <path d="" fill="#FDFDFD" transform="translate(0,0)"/>
    <path d="" fill="#FDFDFD" transform="translate(0,0)"/>
    <path d="" fill="#FEFEFE" transform="translate(0,0)"/>
    <path d="" fill="#FEFEFE" transform="translate(0,0)"/>
    <path d="" fill="#FEFEFE" transform="translate(0,0)"/>
    <path d="" fill="#FDFDFD" transform="translate(0,0)"/>
    <path d="" fill="#FDFDFD" transform="translate(0,0)"/>
    <path d="" fill="#FEFEFE" transform="translate(0,0)"/>
    <path d="" fill="#FEFEFE" transform="translate(0,0)"/>
    <path d="" fill="#FEFEFE" transform="translate(0,0)"/>
    <path d="" fill="#FEFEFE" transform="translate(0,0)"/>
    <path d="" fill="#FDFDFD" transform="translate(0,0)"/>
    <path d="" fill="#FDFDFD" transform="translate(0,0)"/>
    <path d="" fill="#FEFEFE" transform="translate(0,0)"/>
    <path d="" fill="#FEFEFE" transform="translate(0,0)"/>
    <path d="" fill="#FDFDFD" transform="translate(0,0)"/>
    <path d="" fill="#FEFEFE" transform="translate(0,0)"/>
    <path d="" fill="#FEFEFE" transform="translate(0,0)"/>
    <path d="" fill="#FEFEFE" transform="translate(0,0)"/>
    <path d="" fill="#FEFEFE" transform="translate(0,0)"/>
    <path d="" fill="#FEFEFE" transform="translate(0,0)"/>
    <path d="" fill="#FEFEFE" transform="translate(0,0)"/>
    <path d="" fill="#FEFEFE" transform="translate(0,0)"/>
    <path d="" fill="#FEFEFE" transform="translate(0,0)"/>
    <path d="" fill="#FEFEFE" transform="translate(0,0)"/>
    <path d="" fill="#FEFEFE" transform="translate(0,0)"/>
    <path d="" fill="#FEFEFE" transform="translate(0,0)"/>
    <path d="" fill="#FDFDFD" transform="translate(0,0)"/>
    <path d="" fill="#FEFEFE" transform="translate(0,0)"/>
    <path d="" fill="#FEFEFE" transform="translate(0,0)"/>
    <path d="" fill="#FEFEFE" transform="translate(0,0)"/>
    <path d="" fill="#FEFEFE" transform="translate(0,0)"/>
    <path d="" fill="#FEFEFE" transform="translate(0,0)"/>
    <path d="" fill="#FEFEFE" transform="translate(0,0)"/>
    <path d="" fill="#FEFEFE" transform="translate(0,0)"/>
    <path d="" fill="#FDFDFD" transform="translate(0,0)"/>
    <path d="" fill="#FEFEFE" transform="translate(0,0)"/>
    <path d="" fill="#FEFEFE" transform="translate(0,0)"/>
    <path d="" fill="#FEFEFE" transform="translate(0,0)"/>
    <path d="" fill="#FEFEFE" transform="translate(0,0)"/>
    <path d="" fill="#FDFDFD" transform="translate(0,0)"/>
    <path d="" fill="#FEFEFE" transform="translate(0,0)"/>
    <path d="" fill="#FEFEFE" transform="translate(0,0)"/>
    <path d="" fill="#FEFEFE" transform="translate(0,0)"/>
    <path d="" fill="#FEFEFE" transform="translate(0,0)"/>
    <path d="" fill="#FDFDFD" transform="translate(0,0)"/>
    <path d="" fill="#FDFDFD" transform="translate(0,0)"/>
    <path d="" fill="#FEFEFE" transform="translate(0,0)"/>
    <path d="" fill="#FEFEFE" transform="translate(0,0)"/>
    <path d="" fill="#FEFEFE" transform="translate(0,0)"/>
    <path d="" fill="#FDFDFD" transform="translate(0,0)"/>
    <path d="" fill="#FEFEFE" transform="translate(0,0)"/>
    <path d="" fill="#FDFDFD" transform="translate(0,0)"/>
    <path d="" fill="#FEFEFE" transform="translate(0,0)"/>
    <path d="" fill="#FEFEFE" transform="translate(0,0)"/>
    <path d="" fill="#FEFEFE" transform="translate(0,0)"/>
    <path d="" fill="#FEFEFE" transform="translate(0,0)"/>
    <path d="" fill="#FEFEFE" transform="translate(0,0)"/>
    <path d="" fill="#FDFDFD" transform="translate(0,0)"/>
    <path d="" fill="#FEFEFE" transform="translate(0,0)"/>
    <path d="" fill="#FEFEFE" transform="translate(0,0)"/>
    <path d="" fill="#FDFDFD" transform="translate(0,0)"/>
    <path d="" fill="#FEFEFE" transform="translate(0,0)"/>
    <path d="" fill="#FEFEFE" transform="translate(0,0)"/>
    <path d="" fill="#FEFEFE" transform="translate(0,0)"/>
    <path d="" fill="#FEFEFE" transform="translate(0,0)"/>
    <path d="" fill="#FEFEFE" transform="translate(0,0)"/>
    <path d="" fill="#FDFDFD" transform="translate(0,0)"/>
    <path d="" fill="#FDFDFD" transform="translate(0,0)"/>
    <path d="" fill="#FEFEFE" transform="translate(0,0)"/>
    <path d="" fill="#FEFEFE" transform="translate(0,0)"/>
    <path d="" fill="#FEFEFE" transform="translate(0,0)"/>
    <path d="" fill="#FEFEFE" transform="translate(0,0)"/>
    <path d="" fill="#FEFEFE" transform="translate(0,0)"/>
    <path d="" fill="#FDFDFD" transform="translate(0,0)"/>
    <path d="" fill="#FEFEFE" transform="translate(0,0)"/>
    <path d="" fill="#FEFEFE" transform="translate(0,0)"/>
    <path d="" fill="#FEFEFE" transform="translate(0,0)"/>
    <path d="" fill="#FEFEFE" transform="translate(0,0)"/>
    <path d="" fill="#FEFEFE" transform="translate(0,0)"/>
    <path d="" fill="#FDFDFD" transform="translate(0,0)"/>
    <path d="" fill="#FEFEFE" transform="translate(0,0)"/>
    <path d="" fill="#FEFEFE" transform="translate(0,0)"/>
    <path d="" fill="#FEFEFE" transform="translate(0,0)"/>
    <path d="" fill="#FEFEFE" transform="translate(0,0)"/>
    <path d="" fill="#FDFDFD" transform="translate(0,0)"/>
    <path d="" fill="#FEFEFE" transform="translate(0,0)"/>
    <path d="" fill="#FEFEFE" transform="translate(0,0)"/>
    <path d="" fill="#FEFEFE" transform="translate(0,0)"/>
    <path d="" fill="#FEFEFE" transform="translate(0,0)"/>
    <path d="" fill="#FDFDFD" transform="translate(0,0)"/>
    <path d="" fill="#FEFEFE" transform="translate(0,0)"/>
    <path d="" fill="#FEFEFE" transform="translate(0,0)"/>
    <path d="" fill="#FEFEFE" transform="translate(0,0)"/>
    <path d="" fill="#FEFEFE" transform="translate(0,0)"/>
    <path d="" fill="#FEFEFE" transform="translate(0,0)"/>
    <path d="" fill="#FEFEFE" transform="translate(0,0)"/>
    <path d="" fill="#FEFEFE" transform="translate(0,0)"/>
    <path d="" fill="#FEFEFE" transform="translate(0,0)"/>
    <path d="" fill="#FDFDFD" transform="translate(0,0)"/>
    <path d="" fill="#FEFEFE" transform="translate(0,0)"/>
    <path d="" fill="#FEFEFE" transform="translate(0,0)"/>
    <path d="" fill="#FDFDFD" transform="translate(0,0)"/>
    <path d="" fill="#FEFEFE" transform="translate(0,0)"/>
    <path d="" fill="#FEFEFE" transform="translate(0,0)"/>
    <path d="" fill="#FEFEFE" transform="translate(0,0)"/>
    <path d="" fill="#FEFEFE" transform="translate(0,0)"/>
    <path d="" fill="#FEFEFE" transform="translate(0,0)"/>
    <path d="" fill="#FEFEFE" transform="translate(0,0)"/>
    <path d="" fill="#FEFEFE" transform="translate(0,0)"/>
    <path d="" fill="#FEFEFE" transform="translate(0,0)"/>
    <path d="" fill="#FEFEFE" transform="translate(0,0)"/>
    <path d="" fill="#FDFDFD" transform="translate(0,0)"/>
    <path d="" fill="#FEFEFE" transform="translate(0,0)"/>
    <path d="" fill="#FDFDFD" transform="translate(0,0)"/>
    <path d="" fill="#FEFEFE" transform="translate(0,0)"/>
    <path d="" fill="#FDFDFD" transform="translate(0,0)"/>
    <path d="" fill="#FEFEFE" transform="translate(0,0)"/>
    <path d="" fill="#FEFEFE" transform="translate(0,0)"/>
    <path d="" fill="#FEFEFE" transform="translate(0,0)"/>
    <path d="" fill="#FDFDFD" transform="translate(0,0)"/>
    <path d="" fill="#FEFEFE" transform="translate(0,0)"/>
    <path d="" fill="#FEFEFE" transform="translate(0,0)"/>
    <path d="" fill="#FDFDFD" transform="translate(0,0)"/>
    <path d="" fill="#FEFEFE" transform="translate(0,0)"/>
    <path d="" fill="#FEFEFE" transform="translate(0,0)"/>
    <path d="" fill="#FEFEFE" transform="translate(0,0)"/>
    <path d="" fill="#FEFEFE" transform="translate(0,0)"/>
    <path d="" fill="#FDFDFD" transform="translate(0,0)"/>
    <path d="" fill="#FEFEFE" transform="translate(0,0)"/>
    <path d="" fill="#FEFEFE" transform="translate(0,0)"/>
    <path d="" fill="#FDFDFD" transform="translate(0,0)"/>
    <path d="" fill="#FEFEFE" transform="translate(0,0)"/>
    <path d="" fill="#FEFEFE" transform="translate(0,0)"/>
    <path d="" fill="#FEFEFE" transform="translate(0,0)"/>
    <path d="" fill="#FEFEFE" transform="translate(0,0)"/>
    <path d="" fill="#FEFEFE" transform="translate(0,0)"/>
    <path d="" fill="#FEFEFE" transform="translate(0,0)"/>
    <path d="" fill="#FEFEFE" transform="translate(0,0)"/>
    <path d="" fill="#FEFEFE" transform="translate(0,0)"/>
    <path d="" fill="#FEFEFE" transform="translate(0,0)"/>
    <path d="" fill="#FEFEFE" transform="translate(0,0)"/>
    <path d="" fill="#FDFDFD" transform="translate(0,0)"/>
    <path d="" fill="#FEFEFE" transform="translate(0,0)"/>
    <path d="" fill="#FEFEFE" transform="translate(0,0)"/>
    <path d="" fill="#FDFDFD" transform="translate(0,0)"/>
    <path d="" fill="#FEFEFE" transform="translate(0,0)"/>
    <path d="" fill="#FEFEFE" transform="translate(0,0)"/>
    <path d="" fill="#FDFDFD" transform="translate(0,0)"/>
    <path d="" fill="#FEFEFE" transform="translate(0,0)"/>
    <path d="" fill="#FEFEFE" transform="translate(0,0)"/>
    <path d="" fill="#FEFEFE" transform="translate(0,0)"/>
    <path d="" fill="#FEFEFE" transform="translate(0,0)"/>
    <path d="" fill="#FEFEFE" transform="translate(0,0)"/>
    <path d="" fill="#FEFEFE" transform="translate(0,0)"/>
    <path d="" fill="#FDFDFD" transform="translate(0,0)"/>
    <path d="" fill="#FEFEFE" transform="translate(0,0)"/>
    <path d="" fill="#FEFEFE" transform="translate(0,0)"/>
    <path d="" fill="#FEFEFE" transform="translate(0,0)"/>
    <path d="" fill="#FEFEFE" transform="translate(0,0)"/>
    <path d="" fill="#FEFEFE" transform="translate(0,0)"/>
    <path d="" fill="#FEFEFE" transform="translate(0,0)"/>
    <path d="" fill="#FEFEFE" transform="translate(0,0)"/>
    <path d="" fill="#FDFDFD" transform="translate(0,0)"/>
    <path d="" fill="#FEFEFE" transform="translate(0,0)"/>
    <path d="" fill="#FEFEFE" transform="translate(0,0)"/>
    <path d="" fill="#FEFEFE" transform="translate(0,0)"/>
    <path d="" fill="#FEFEFE" transform="translate(0,0)"/>
    <path d="" fill="#FEFEFE" transform="translate(0,0)"/>
    <path d="" fill="#FEFEFE" transform="translate(0,0)"/>
    <path d="" fill="#FDFDFD" transform="translate(0,0)"/>
    <path d="" fill="#FEFEFE" transform="translate(0,0)"/>
    <path d="" fill="#FDFDFD" transform="translate(0,0)"/>
    <path d="" fill="#FEFEFE" transform="translate(0,0)"/>
    <path d="" fill="#FEFEFE" transform="translate(0,0)"/>
    <path d="" fill="#FEFEFE" transform="translate(0,0)"/>
    <path d="" fill="#FEFEFE" transform="translate(0,0)"/>
    <path d="" fill="#FEFEFE" transform="translate(0,0)"/>
    <path d="" fill="#FDFDFD" transform="translate(0,0)"/>
    <path d="" fill="#FDFDFD" transform="translate(0,0)"/>
    <path d="" fill="#FEFEFE" transform="translate(0,0)"/>
    <path d="" fill="#FEFEFE" transform="translate(0,0)"/>
    <path d="" fill="#FEFEFE" transform="translate(0,0)"/>
    <path d="" fill="#FEFEFE" transform="translate(0,0)"/>
    <path d="" fill="#FEFEFE" transform="translate(0,0)"/>
    <path d="" fill="#FEFEFE" transform="translate(0,0)"/>
    <path d="" fill="#FEFEFE" transform="translate(0,0)"/>
    <path d="" fill="#FDFDFD" transform="translate(0,0)"/>
    <path d="" fill="#FEFEFE" transform="translate(0,0)"/>
    <path d="" fill="#FDFDFD" transform="translate(0,0)"/>
    <path d="" fill="#FDFDFD" transform="translate(0,0)"/>
    <path d="" fill="#FEFEFE" transform="translate(0,0)"/>
    <path d="" fill="#FEFEFE" transform="translate(0,0)"/>
    <path d="" fill="#FDFDFD" transform="translate(0,0)"/>
    <path d="" fill="#FEFEFE" transform="translate(0,0)"/>
    <path d="" fill="#FEFEFE" transform="translate(0,0)"/>
    <path d="" fill="#FEFEFE" transform="translate(0,0)"/>
    <path d="" fill="#FEFEFE" transform="translate(0,0)"/>
    <path d="" fill="#FEFEFE" transform="translate(0,0)"/>
    <path d="" fill="#FDFDFD" transform="translate(0,0)"/>
    <path d="" fill="#FEFEFE" transform="translate(0,0)"/>
    <path d="" fill="#FEFEFE" transform="translate(0,0)"/>
</svg>
