<?xml version="1.0" encoding="UTF-8" standalone="no"?>
<!DOCTYPE svg PUBLIC "-//W3C//DTD SVG 1.1//EN" "http://www.w3.org/Graphics/SVG/1.1/DTD/svg11.dtd">
<svg version="1.1" xmlns="http://www.w3.org/2000/svg" width="512" height="512">
    <path d="M0 0 C1.55436972 0.05616061 3.10869594 0.11353638 4.66297913 0.17204285 C6.26717782 0.19258139 7.87144592 0.20822904 9.47573853 0.21920776 C13.68129343 0.2610423 17.88261189 0.36892149 22.08650208 0.49095154 C26.3828957 0.60385674 30.67998006 0.6537962 34.97743225 0.70915222 C43.39668592 0.8268275 51.81250753 1.01433597 60.22938538 1.2462616 C58.75235336 5.07368 57.03977016 8.29108533 54.77235413 11.71891785 C53.73183899 13.29999329 53.73183899 13.29999329 52.67030334 14.91300964 C51.9191939 16.04494678 51.16805385 17.17686362 50.41688538 18.3087616 C49.64181312 19.48397211 48.86724161 20.65951301 48.09315491 21.83537292 C46.53553713 24.20095319 44.97611958 26.56533043 43.41542053 28.92887878 C40.45777872 33.41720097 37.52833498 37.92344818 34.60438538 42.4337616 C26.85950346 54.3623545 19.08510109 66.27167589 11.31336975 78.18278503 C4.77813606 88.19924894 -1.75507605 98.21697186 -8.27061462 108.2462616 C-16.05960719 120.23576366 -23.87385586 132.2087725 -31.68663025 144.18278503 C-38.22186394 154.19924894 -44.75507605 164.21697186 -51.27061462 174.2462616 C-59.05960719 186.23576366 -66.87385586 198.2087725 -74.68663025 210.18278503 C-81.22186394 220.19924894 -87.75507605 230.21697186 -94.27061462 240.2462616 C-102.05960719 252.23576366 -109.87385586 264.2087725 -117.68663025 276.18278503 C-124.22186394 286.19924894 -130.75507605 296.21697186 -137.27061462 306.2462616 C-145.05960719 318.23576366 -152.87385586 330.2087725 -160.68663025 342.18278503 C-167.22186417 352.19924929 -173.75493715 362.21706183 -180.27061462 372.2462616 C-200.62511508 403.56910436 -200.62511508 403.56910436 -207.64561462 414.1212616 C-208.05642273 414.7397699 -208.46723083 415.3582782 -208.89048767 415.99552917 C-211.64668773 420.1223347 -211.64668773 420.1223347 -212.77061462 421.2462616 C-214.97929293 421.34059145 -217.19102983 421.36368591 -219.40171814 421.35978699 C-220.09436768 421.35993301 -220.78701721 421.36007904 -221.50065613 421.36022949 C-223.80030908 421.35953034 -226.09988199 421.35173788 -228.39952087 421.34391785 C-229.98992875 421.34205367 -231.5803372 421.34062977 -233.17074585 421.33963013 C-237.36457392 421.33580488 -241.55836757 421.32597455 -245.75218201 421.31492615 C-250.02850377 421.30471216 -254.30483107 421.30013254 -258.5811615 421.29508972 C-266.9776617 421.28435228 -275.37413389 421.26727579 -283.77061462 421.2462616 C-282.82045051 419.48816532 -281.86833017 417.73112621 -280.91539001 415.97453308 C-280.38538895 414.99596848 -279.85538788 414.01740387 -279.30932617 413.00918579 C-277.43115501 409.63672488 -275.38719268 406.49590012 -273.20811462 403.3087616 C-272.33718581 402.02307284 -271.46745794 400.73656999 -270.59873962 399.4493866 C-270.14176697 398.77327332 -269.68479431 398.09716003 -269.213974 397.40055847 C-266.58740663 393.48025562 -264.02483742 389.51839869 -261.45811462 385.5587616 C-260.91082703 384.71515076 -260.36353943 383.87153992 -259.79966736 383.00236511 C-258.68083493 381.27735563 -257.56226539 379.55217562 -256.44395447 377.826828 C-253.72316826 373.63092631 -250.99665701 369.43874947 -248.27061462 365.2462616 C-247.18725267 363.57961353 -246.10391937 361.91294685 -245.02061462 360.2462616 C-203.85394796 296.91292826 -162.68728129 233.57959493 -121.52061462 170.2462616 C-120.98452576 169.4215033 -120.44843689 168.596745 -119.89610291 167.74699402 C-118.81116484 166.07787108 -117.72620385 164.40876304 -116.64122009 162.7396698 C-113.95725225 158.61070517 -111.27366431 154.4814947 -108.59092712 150.35173035 C-102.19121745 140.50119684 -95.78013192 130.65816368 -89.36143494 120.81999207 C-83.685561 112.1190323 -78.02264536 103.40969537 -72.36338806 94.69792175 C-69.66656709 90.54686777 -66.96852249 86.39660922 -64.27061462 82.2462616 C-63.18727557 80.57959865 -62.10394223 78.91293198 -61.02061462 77.2462616 C-41.52061463 47.2462616 -41.52061463 47.2462616 -39.89414978 44.74406433 C-38.81563055 43.08476654 -37.73717953 41.42542441 -36.65879822 39.76603699 C-33.87737958 35.48625207 -31.09462079 31.20734744 -28.30967712 26.92985535 C-27.73797791 26.05135925 -27.16627869 25.17286316 -26.57725525 24.26774597 C-25.50088238 22.61380717 -24.42409839 20.96013579 -23.3467865 19.30680847 C-22.60138611 18.16115417 -22.60138611 18.16115417 -21.84092712 16.99235535 C-21.35822861 16.27968506 -20.87553009 15.56701477 -20.37820435 14.83274841 C-18.70356013 12.27202052 -18.70356013 12.27202052 -17.51727295 9.41429138 C-13.39091169 0.94343169 -8.77110458 -0.1173398 0 0 Z " fill="#FEFEFE" transform="translate(368.77061462402344,48.75373840332031)"/>
    <path d="M0 0 C19.36994332 16.47558397 30.20584336 40.45248456 33.00683594 65.53662109 C35.7760928 100.70840759 32.00510393 136.77546045 8.25 164.625 C-10.53260438 185.53136359 -35.56759701 197.1120043 -63.62695312 198.79785156 C-91.45156887 199.87080337 -118.37937646 194.79421224 -139.75 175.625 C-141.10931641 174.40683594 -141.10931641 174.40683594 -142.49609375 173.1640625 C-164.04582359 152.77999073 -171.36958911 125.03043452 -172.93359375 96.24609375 C-173.60906625 65.13462485 -165.581119 33.72633745 -143.82836914 10.74829102 C-142.48118938 9.36182533 -141.11596499 7.99296201 -139.75 6.625 C-139.03328125 5.89667969 -138.3165625 5.16835937 -137.578125 4.41796875 C-102.3701301 -29.13551511 -37.42531742 -29.47884592 0 0 Z M-97.9375 43.875 C-111.87467046 61.18284483 -111.09846761 86.19948201 -109.56396484 107.16699219 C-108.20417655 119.29154035 -102.99562674 131.78048115 -93.8671875 140.07421875 C-83.71180264 147.51275711 -71.83435992 147.57223624 -59.75 146.625 C-49.97243486 144.66724954 -42.57153134 139.70384382 -37 131.5 C-29.22621445 118.41383252 -27.36010082 103.8635198 -27.4375 88.875 C-27.44241455 87.74046387 -27.4473291 86.60592773 -27.45239258 85.43701172 C-27.66702754 69.97669001 -29.9161073 53.81916924 -39.94921875 41.375 C-47.592812 33.94695276 -56.61908983 31.24078741 -67 31.3125 C-67.8453833 31.31813965 -68.6907666 31.3237793 -69.56176758 31.32958984 C-81.56733175 31.56306669 -89.72852365 35.01849626 -97.9375 43.875 Z " fill="#FEFEFE" transform="translate(195.75,63.375)"/>
    <path d="M0 0 C20.20580374 17.21986717 30.36785801 42.00698973 32.93359375 68.046875 C35.60424022 101.92071568 30.71562885 136.9132901 8.25 163.625 C7.54101562 164.49640625 6.83203125 165.3678125 6.1015625 166.265625 C-6.2019528 180.74557441 -24.2241529 191.40877273 -42.75 195.625 C-43.70084473 195.84494629 -43.70084473 195.84494629 -44.67089844 196.06933594 C-73.67359742 202.52517846 -103.78423164 199.20927581 -129.3671875 183.8828125 C-150.65770069 170.07042295 -164.88890539 148.27417035 -170.1784668 123.55639648 C-176.67844488 90.86642405 -173.73117365 53.63372083 -155.63867188 24.85742188 C-153.20902825 21.27845117 -150.52397467 17.9399981 -147.75 14.625 C-147.12609375 13.83867187 -146.5021875 13.05234375 -145.859375 12.2421875 C-129.74452073 -7.19043089 -105.05428657 -17.4702722 -80.42626953 -20.14794922 C-51.50474211 -22.60160918 -23.25501839 -18.317309 0 0 Z M-99.75 44.625 C-112.85394049 60.58739809 -111.87611542 85.25863015 -110.75 104.625 C-109.38237517 117.47497495 -105.46918626 130.11652231 -95.74609375 139.125 C-84.72633891 147.40598994 -72.9926076 147.55048542 -59.75 146.625 C-50.9767712 145.13767141 -44.40623743 140.3893589 -38.75 133.625 C-26.21865332 114.03739596 -25.45918757 88.90796912 -29.75 66.625 C-32.51038168 55.55693114 -37.50466342 44.72151812 -46.75 37.625 C-64.70871284 27.08520664 -85.48436119 29.09302731 -99.75 44.625 Z " fill="#FEFEFE" transform="translate(457.75,278.375)"/>
</svg>
